<svg width="24px" height="24px" viewBox="0 0 24 24" version="1.1" xmlns="http://www.w3.org/2000/svg"><path d="M15.758 5.588c.61.043 2.354.227 3.482 1.886-.092.057-2.078 1.213-2.05 3.617.03 2.873 2.52 3.83 2.547 3.845a10.19 10.19 0 0 1-1.32 2.702c-.793 1.156-1.61 2.312-2.907 2.333-1.27.02-1.68-.752-3.135-.752s-1.908.73-3.113.78c-1.248.05-2.198-1.248-3-2.404-1.63-2.362-2.88-6.666-1.206-9.574.83-1.447 2.32-2.354 3.93-2.383 1.226-.02 2.382.823 3.134.823.752.008 2.078-.985 3.638-.872m-.964-1.553c.666-.8 1.113-1.922.986-3.035-.957.035-2.113.638-2.8 1.44-.618.71-1.157 1.85-1.008 2.936 1.07.085 2.162-.54 2.822-1.34"></path></svg>