<?xml version="1.0" encoding="UTF-8" standalone="no"?>
<!DOCTYPE svg PUBLIC "-//W3C//DTD SVG 1.1//EN" "http://www.w3.org/Graphics/SVG/1.1/DTD/svg11.dtd">
<svg xmlns="http://www.w3.org/2000/svg" version="1.1" viewBox="0.00 0.00 432.00 432.00">
<g stroke-width="2.00" fill="none" stroke-linecap="butt">
<path stroke="#444844" vector-effect="non-scaling-stroke" d="
  M 431.02 0.00
  Q 431.07 185.25 430.98 370.50
  Q 430.98 371.89 431.45 375.89"
/>
<path stroke="#151515" vector-effect="non-scaling-stroke" d="
  M 431.45 375.89
  L 431.51 377.29"
/>
<path stroke="#796228" vector-effect="non-scaling-stroke" d="
  M 431.51 377.29
  L 415.29 379.22"
/>
<path stroke="#7b6b39" vector-effect="non-scaling-stroke" d="
  M 415.29 379.22
  Q 415.12 378.49 415.38 378.03"
/>
<path stroke="#0c0a07" vector-effect="non-scaling-stroke" d="
  M 415.38 378.03
  Q 415.84 377.18 416.87 376.73
  Q 417.34 376.53 417.41 376.02
  C 418.32 369.15 417.69 361.05 417.71 349.69
  C 417.92 264.13 417.71 142.17 417.80 18.81
  Q 417.80 15.82 417.34 11.42
  Q 417.24 10.46 415.05 10.26"
/>
<path stroke="#7b6b39" vector-effect="non-scaling-stroke" d="
  M 415.05 10.26
  L 407.82 14.42"
/>
<path stroke="#796228" vector-effect="non-scaling-stroke" d="
  M 407.82 14.42
  L 375.05 33.74"
/>
<path stroke="#7b6b39" vector-effect="non-scaling-stroke" d="
  M 375.05 33.74
  L 302.45 76.63"
/>
<path stroke="#796228" vector-effect="non-scaling-stroke" d="
  M 302.45 76.63
  C 293.78 79.61 297.00 92.58 297.00 99.49
  Q 297.00 243.32 297.00 386.79
  A 0.94 0.94 0.0 0 1 296.08 387.73
  L 276.24 388.23"
/>
<path stroke="#7b6b39" vector-effect="non-scaling-stroke" d="
  M 276.24 388.23
  L 276.24 120.73
  A 0.86 0.84 32.1 0 0 276.15 120.35
  Q 276.01 120.07 276.01 119.75
  Q 276.01 65.38 275.99 10.97
  Q 275.99 10.31 275.42 10.63
  L 269.81 13.76"
/>
<path stroke="#796228" vector-effect="non-scaling-stroke" d="
  M 269.81 13.76
  L 241.25 30.71"
/>
<path stroke="#7b6b39" vector-effect="non-scaling-stroke" d="
  M 241.25 30.71
  L 165.77 75.25"
/>
<path stroke="#796228" vector-effect="non-scaling-stroke" d="
  M 165.77 75.25
  L 157.39 79.89"
/>
<path stroke="#0c0a07" vector-effect="non-scaling-stroke" d="
  M 157.39 79.89
  Q 154.96 79.80 154.97 82.75
  Q 155.03 97.67 155.33 112.61
  Q 155.34 113.11 155.75 113.41
  Q 156.30 113.81 157.27 113.99"
/>
<path stroke="#796228" vector-effect="non-scaling-stroke" d="
  M 157.27 113.99
  C 157.22 122.58 157.33 213.48 157.27 213.50
  A 0.31 0.29 -9.7 0 0 157.06 213.78
  L 157.06 354.20"
/>
<path stroke="#0c0a07" vector-effect="non-scaling-stroke" d="
  M 157.06 354.20
  C 154.58 364.76 155.58 373.95 154.94 384.34
  Q 154.90 384.90 154.34 384.91
  L 148.23 385.05"
/>
<path stroke="#796228" vector-effect="non-scaling-stroke" d="
  M 148.23 385.05
  L 138.02 384.62
  Q 137.47 384.60 137.35 384.06
  Q 136.97 382.44 137.46 380.75"
/>
<path stroke="#7b6b39" vector-effect="non-scaling-stroke" d="
  M 137.46 380.75
  L 137.47 202.30"
/>
<path stroke="#151515" vector-effect="non-scaling-stroke" d="
  M 137.47 202.30
  Q 139.56 190.82 137.36 180.66"
/>
<path stroke="#7b6b39" vector-effect="non-scaling-stroke" d="
  M 137.36 180.66
  L 137.03 11.02
  A 0.63 0.63 0.0 0 0 136.09 10.47
  L 129.48 14.22"
/>
<path stroke="#796228" vector-effect="non-scaling-stroke" d="
  M 129.48 14.22
  L 129.01 14.55"
/>
<path stroke="#151515" vector-effect="non-scaling-stroke" d="
  M 129.01 14.55
  Q 126.98 14.06 125.80 16.52"
/>
<path stroke="#796228" vector-effect="non-scaling-stroke" d="
  M 125.80 16.52
  L 96.24 33.96"
/>
<path stroke="#7b6b39" vector-effect="non-scaling-stroke" d="
  M 96.24 33.96
  L 26.25 75.31"
/>
<path stroke="#796228" vector-effect="non-scaling-stroke" d="
  M 26.25 75.31
  L 19.14 79.52
  Q 18.68 79.80 18.68 80.34
  L 18.49 300.98"
/>
<path stroke="#0c0a07" vector-effect="non-scaling-stroke" d="
  M 18.49 300.98
  C 16.78 322.06 18.53 343.16 17.04 364.24
  Q 16.86 366.78 14.75 366.99
  Q 7.00 367.76 0.00 364.14"
/>
<path stroke="#595d59" vector-effect="non-scaling-stroke" d="
  M 432.00 1.03
  L 432.00 18.59"
/>
<path stroke="#595d59" vector-effect="non-scaling-stroke" d="
  M 432.00 19.28
  L 432.00 32.84"
/>
<path stroke="#595d59" vector-effect="non-scaling-stroke" d="
  M 432.00 51.27
  Q 431.39 54.06 432.00 56.85"
/>
<path stroke="#595d59" vector-effect="non-scaling-stroke" d="
  M 432.00 71.30
  L 432.00 122.57"
/>
<path stroke="#595d59" vector-effect="non-scaling-stroke" d="
  M 432.00 145.30
  L 432.00 224.82"
/>
<path stroke="#595d59" vector-effect="non-scaling-stroke" d="
  M 432.00 227.27
  L 432.00 234.85"
/>
<path stroke="#595d59" vector-effect="non-scaling-stroke" d="
  M 432.00 241.27
  L 432.00 248.85"
/>
<path stroke="#595d59" vector-effect="non-scaling-stroke" d="
  M 432.00 249.27
  L 432.00 256.85"
/>
<path stroke="#595d59" vector-effect="non-scaling-stroke" d="
  M 432.00 257.27
  L 432.00 264.85"
/>
<path stroke="#595d59" vector-effect="non-scaling-stroke" d="
  M 432.00 265.27
  L 432.00 272.85"
/>
<path stroke="#595d59" vector-effect="non-scaling-stroke" d="
  M 432.00 273.27
  L 432.00 280.85"
/>
<path stroke="#595d59" vector-effect="non-scaling-stroke" d="
  M 432.00 281.27
  L 432.00 288.85"
/>
<path stroke="#595d59" vector-effect="non-scaling-stroke" d="
  M 432.00 289.29
  L 432.00 312.82"
/>
<path stroke="#595d59" vector-effect="non-scaling-stroke" d="
  M 432.00 373.54
  L 431.45 375.89"
/>
<path stroke="#87753f" vector-effect="non-scaling-stroke" d="
  M 415.05 10.26
  Q 415.21 16.56 415.18 22.25
  C 414.72 126.65 414.95 231.09 415.22 335.49
  C 415.25 346.02 414.78 363.81 415.38 378.03"
/>
<path stroke="#f4cd60" vector-effect="non-scaling-stroke" d="
  M 415.29 379.22
  Q 415.32 380.35 413.07 380.29
  A 1.41 1.41 0.0 0 1 411.70 378.85
  C 412.57 325.84 411.69 272.65 411.78 219.62
  C 411.78 216.83 412.28 213.23 411.49 209.79
  Q 411.09 208.07 410.99 206.50
  C 410.82 203.62 410.03 200.84 410.12 198.24
  C 410.33 192.65 411.02 186.91 411.02 181.58
  Q 411.03 160.07 410.56 138.57
  C 410.41 131.90 412.03 124.82 411.99 118.32
  C 411.85 97.05 412.68 75.75 412.22 54.50
  Q 411.89 39.68 411.88 24.87
  Q 411.88 21.59 410.86 19.34
  Q 409.64 16.66 407.82 14.42"
/>
<path stroke="#90804e" vector-effect="non-scaling-stroke" d="
  M 137.36 180.66
  Q 136.54 191.63 137.47 202.30"
/>
<path stroke="#f4cd60" vector-effect="non-scaling-stroke" d="
  M 137.46 380.75
  Q 137.23 380.29 137.24 379.72
  Q 137.24 379.45 136.97 379.39
  L 133.62 378.65
  Q 133.10 378.53 133.13 378.00
  C 134.56 350.95 134.79 329.39 134.09 302.18
  C 133.70 286.94 134.14 271.40 133.96 256.01
  Q 133.93 253.45 133.55 250.63
  C 132.74 244.58 133.08 239.07 133.63 231.13
  C 133.89 227.41 133.06 223.54 133.14 219.64
  C 133.30 211.26 133.09 202.94 133.03 194.56
  C 133.00 191.21 133.76 186.45 133.78 182.48
  C 133.86 163.97 133.15 145.15 134.32 126.69
  C 135.01 115.85 133.79 104.66 133.89 94.46
  C 134.05 78.56 133.89 62.67 133.78 46.77
  C 133.72 38.20 131.70 29.61 131.63 20.72
  C 131.61 18.34 132.75 16.39 129.81 14.99
  Q 129.54 14.87 129.51 14.70
  Q 129.47 14.52 129.48 14.22"
/>
<path stroke="#f4cd60" vector-effect="non-scaling-stroke" d="
  M 276.24 388.23
  Q 274.20 388.55 272.52 387.88
  Q 272.01 387.67 271.99 387.12
  C 271.74 378.70 271.67 370.65 271.19 361.92
  Q 270.17 343.30 271.10 324.67
  Q 271.73 311.86 271.73 304.69
  Q 271.74 225.13 271.72 145.56
  Q 271.72 127.88 272.63 110.23
  Q 273.32 97.10 273.22 90.25
  Q 273.04 76.65 271.99 55.25
  Q 271.61 47.42 271.76 20.50
  Q 271.77 18.63 269.81 13.76"
/>
<path stroke="#f4cd60" vector-effect="non-scaling-stroke" d="
  M 302.45 76.63
  C 308.54 93.31 304.77 112.78 304.87 130.13
  C 305.34 206.45 304.69 267.79 304.74 369.69
  Q 304.74 377.29 305.25 381.97
  C 305.42 383.60 305.36 384.66 304.82 386.11
  A 0.83 0.82 -80.9 0 0 305.62 387.22
  L 344.68 385.98
  Q 344.93 385.97 345.03 385.74
  L 345.13 385.49"
/>
<path stroke="#856c2e" vector-effect="non-scaling-stroke" d="
  M 345.13 385.49
  Q 345.27 385.98 345.50 385.96
  Q 356.50 385.33 367.12 384.32"
/>
<path stroke="#f4cd60" vector-effect="non-scaling-stroke" d="
  M 367.12 384.32
  L 376.83 383.36
  A 2.02 2.01 -86.6 0 0 378.61 381.77
  Q 381.33 369.26 381.31 357.25
  Q 381.21 304.58 381.30 251.91
  C 381.32 241.07 381.96 229.32 382.19 218.01
  C 382.33 211.23 383.64 208.31 387.27 203.05
  Q 389.49 199.86 387.09 198.86"
/>
<path stroke="#856c2e" vector-effect="non-scaling-stroke" d="
  M 387.09 198.86
  C 405.05 169.72 400.34 130.99 383.62 102.39
  Q 379.15 94.76 374.72 89.55"
/>
<path stroke="#f4cd60" vector-effect="non-scaling-stroke" d="
  M 374.72 89.55
  Q 374.40 80.27 374.33 71.56
  C 374.24 60.63 375.51 46.45 375.05 33.74"
/>
<path stroke="#8e773d" vector-effect="non-scaling-stroke" d="
  M 431.51 377.29
  Q 431.68 377.27 432.00 377.56"
/>
<path stroke="#796228" vector-effect="non-scaling-stroke" d="
  M 432.00 406.81
  Q 273.75 432.29 114.22 414.02"
/>
<path stroke="#f4cd60" vector-effect="non-scaling-stroke" d="
  M 114.22 414.02
  Q 113.81 411.09 112.53 408.48
  C 109.18 401.65 105.32 394.74 104.71 387.00
  Q 104.52 384.67 104.21 383.35
  A 1.18 1.17 -84.2 0 0 103.56 382.55
  C 99.13 380.48 95.66 378.98 95.60 373.43
  C 95.55 369.68 96.35 365.30 96.32 361.52
  C 96.02 323.40 96.39 285.36 95.23 247.25
  Q 94.88 235.78 97.38 213.68
  C 97.58 211.94 99.14 207.97 97.42 206.08"
/>
<path stroke="#856c2e" vector-effect="non-scaling-stroke" d="
  M 97.42 206.08
  Q 108.07 189.17 106.75 169.99
  Q 104.19 132.89 96.96 77.92"
/>
<path stroke="#f4cd60" vector-effect="non-scaling-stroke" d="
  M 96.96 77.92
  Q 93.49 56.47 97.56 34.51
  Q 97.68 33.85 96.24 33.96"
/>
<path stroke="#8e773d" vector-effect="non-scaling-stroke" d="
  M 125.80 16.52
  Q 127.63 15.91 129.01 14.55"
/>
<path stroke="#856c2e" vector-effect="non-scaling-stroke" d="
  M 148.23 385.05
  L 156.67 385.48
  Q 157.20 385.51 157.19 384.97
  L 157.06 354.20"
/>
<path stroke="#856c2e" vector-effect="non-scaling-stroke" d="
  M 157.27 113.99
  L 157.39 79.89"
/>
<path stroke="#f4cd60" vector-effect="non-scaling-stroke" d="
  M 165.77 75.25
  C 165.93 91.34 166.87 106.97 166.15 123.08
  C 165.57 136.26 165.28 151.09 166.15 164.50
  C 167.73 189.19 166.65 214.43 166.68 239.19
  C 166.69 247.58 166.81 255.69 166.24 264.17
  C 164.97 283.25 164.57 295.18 166.20 310.75
  Q 166.80 316.41 166.33 323.25
  C 165.61 333.78 166.41 344.43 166.42 355.25
  C 166.43 362.64 167.07 369.52 166.39 377.58
  C 166.19 379.91 166.42 382.00 166.65 384.27
  C 167.06 388.22 169.44 387.02 172.16 387.15
  Q 190.89 388.08 210.71 388.23"
/>
<path stroke="#796228" vector-effect="non-scaling-stroke" d="
  M 210.71 388.23
  L 232.85 388.89"
/>
<path stroke="#f4cd60" vector-effect="non-scaling-stroke" d="
  M 232.85 388.89
  Q 235.52 390.89 239.12 389.84
  Q 239.63 389.70 239.86 389.23
  Q 240.68 387.58 240.75 385.99
  Q 241.18 375.99 241.69 355.56
  C 241.84 349.58 241.21 343.67 241.32 337.67
  C 241.80 308.67 240.29 280.27 241.17 250.75
  Q 241.49 240.13 241.48 230.74
  Q 241.46 177.84 241.46 124.94
  C 241.46 97.59 241.23 70.26 241.24 42.92
  C 241.24 38.89 239.59 35.72 242.03 31.27
  Q 242.33 30.73 241.71 30.72
  L 241.25 30.71"
/>
<path stroke="#7b6b39" vector-effect="non-scaling-stroke" d="
  M 232.85 388.89
  L 231.97 348.78"
/>
<path stroke="#90804e" vector-effect="non-scaling-stroke" d="
  M 231.97 348.78
  L 231.37 326.65"
/>
<path stroke="#7b6b39" vector-effect="non-scaling-stroke" d="
  M 231.37 326.65
  C 229.92 246.26 230.51 165.74 231.78 90.50
  Q 231.87 84.98 228.94 82.02
  C 218.75 71.71 208.18 101.39 206.05 107.76
  C 195.19 140.13 171.04 231.23 212.02 250.50
  A 2.14 2.12 -77.3 0 1 213.25 252.47
  L 210.71 388.23"
/>
<path stroke="#87753f" vector-effect="non-scaling-stroke" d="
  M 374.72 89.55
  C 365.62 81.40 355.95 76.40 344.73 83.76
  Q 337.64 88.42 334.71 92.52
  C 308.91 128.60 299.30 191.69 346.78 216.30
  A 1.47 1.46 -76.3 0 1 347.56 217.60
  L 346.97 292.51"
/>
<path stroke="#90804e" vector-effect="non-scaling-stroke" d="
  M 346.97 292.51
  L 346.07 333.26"
/>
<path stroke="#87753f" vector-effect="non-scaling-stroke" d="
  M 346.07 333.26
  L 345.13 385.49"
/>
<path stroke="#87753f" vector-effect="non-scaling-stroke" d="
  M 96.96 77.92
  C 96.77 103.73 95.84 129.42 96.15 155.25
  C 96.18 158.21 94.98 162.40 91.36 160.94
  A 2.28 2.27 9.3 0 1 89.95 158.98
  L 84.86 80.66
  Q 84.81 80.00 84.15 80.00
  L 83.84 80.00
  Q 83.15 80.00 83.12 80.69
  C 82.27 98.59 82.25 116.59 81.49 134.36
  C 81.14 142.54 81.55 150.88 80.22 158.99
  C 79.65 162.49 75.07 162.57 74.90 158.49
  Q 73.37 119.87 71.97 81.25
  Q 71.94 80.62 71.71 80.32
  Q 71.31 79.79 70.60 80.07
  Q 70.14 80.26 70.10 80.76
  C 68.42 106.10 67.40 130.31 65.16 157.76
  C 64.94 160.42 63.44 161.95 60.77 160.64
  Q 60.33 160.43 60.12 159.98
  Q 59.26 158.16 59.26 157.19
  Q 59.25 119.37 59.03 81.56
  Q 59.02 79.96 57.76 80.03
  A 1.30 1.29 -88.5 0 0 56.53 81.20
  C 56.07 85.86 56.05 90.84 55.58 95.18
  Q 51.73 131.07 49.24 167.08
  C 47.94 185.90 50.68 204.13 68.68 214.36
  A 1.61 1.61 0.0 0 1 69.48 215.77
  L 66.87 376.43
  A 0.91 0.90 3.9 0 0 67.67 377.34
  L 87.76 379.93
  A 0.47 0.47 0.0 0 0 88.29 379.46
  C 87.53 338.18 87.44 297.17 86.37 256.06
  Q 85.85 235.75 86.03 215.36
  Q 86.03 214.84 86.48 214.58
  Q 92.42 211.13 97.42 206.08"
/>
<path stroke="#7b6b39" vector-effect="non-scaling-stroke" d="
  M 114.22 414.02
  Q 56.58 407.75 0.00 394.73"
/>
<path stroke="#87753f" vector-effect="non-scaling-stroke" d="
  M 0.00 366.87
  L 18.66 370.10"
/>
<path stroke="#f4cd60" vector-effect="non-scaling-stroke" d="
  M 18.66 370.10
  Q 20.98 371.41 23.59 370.20
  Q 24.04 369.99 24.25 369.53
  Q 26.30 365.01 26.49 361.75
  Q 27.16 350.02 27.03 328.94
  C 26.88 304.04 25.94 278.89 27.21 254.02
  Q 28.24 233.87 27.33 213.72
  Q 26.76 201.09 26.76 193.75
  Q 26.79 156.33 26.97 118.91
  C 27.01 110.37 26.58 96.09 26.94 84.25
  Q 27.06 80.45 26.25 75.31"
/>
<path stroke="#856c2e" vector-effect="non-scaling-stroke" d="
  M 18.66 370.10
  L 18.49 300.98"
/>
<path stroke="#211f1c" vector-effect="non-scaling-stroke" d="
  M 84.31 259.81
  Q 84.57 250.24 84.28 244.74
  C 83.87 236.96 83.27 228.71 83.72 220.95
  C 83.91 217.68 83.71 214.10 86.53 212.50
  C 103.22 203.09 106.20 181.66 104.09 164.23
  Q 102.18 148.43 100.26 132.44
  A 0.64 0.64 0.0 0 0 98.98 132.47
  C 98.58 138.89 100.77 160.84 95.07 163.33
  C 84.91 167.77 85.64 142.26 85.96 137.91
  Q 85.97 137.76 85.85 137.69
  L 85.54 137.51
  Q 84.95 137.16 84.91 137.84
  Q 84.30 148.42 82.26 158.83
  C 81.12 164.58 73.95 165.39 72.45 159.56
  C 70.69 152.73 71.13 145.26 71.17 138.25
  Q 71.18 136.62 69.83 137.26
  A 0.79 0.79 0.0 0 0 69.37 137.91
  Q 68.47 146.97 68.20 155.96
  C 67.96 163.84 59.01 166.36 57.05 158.64
  Q 56.41 156.11 56.47 153.75
  Q 56.78 142.12 56.53 134.00
  Q 56.43 130.45 57.20 126.99
  Q 57.45 125.89 56.72 125.64
  A 0.74 0.73 13.8 0 0 55.75 126.22
  Q 53.25 142.30 51.98 158.45
  C 50.55 176.51 49.12 195.30 63.66 208.95
  C 65.41 210.59 67.76 211.67 69.83 212.88
  A 2.90 2.90 0.0 0 1 71.28 215.34
  C 71.78 249.65 70.91 284.21 69.66 318.51
  C 68.97 337.25 69.27 355.85 69.28 374.48
  A 1.13 1.13 0.0 0 0 70.25 375.59
  L 85.52 377.73
  A 1.02 1.01 -84.0 0 0 86.68 376.79
  Q 87.39 365.47 86.44 353.98
  C 83.74 321.39 83.53 288.61 84.31 259.81"
/>
<path stroke="#151515" vector-effect="non-scaling-stroke" d="
  M 231.37 326.65
  Q 230.07 324.65 229.97 322.00
  C 228.93 295.44 227.76 265.53 227.87 235.94
  Q 228.08 175.89 229.03 115.85
  C 229.15 108.37 229.74 101.14 230.31 93.76
  C 230.62 89.64 229.48 83.57 225.11 82.17
  A 1.44 1.43 45.3 0 0 224.25 82.16
  Q 219.67 83.54 217.75 87.29
  C 207.03 108.27 199.72 132.98 195.20 157.65
  Q 193.47 167.12 192.46 177.44
  C 190.14 201.02 188.19 237.50 214.38 249.91
  Q 214.85 250.13 214.93 250.65
  Q 215.20 252.57 215.20 254.50
  C 215.17 265.32 214.30 276.63 214.26 286.84
  C 214.19 303.82 213.27 320.93 213.37 337.76
  Q 213.50 360.68 213.14 384.68
  A 2.61 2.61 0.0 0 0 215.81 387.33
  L 228.60 387.02
  Q 230.17 386.98 230.18 385.40
  L 230.36 349.84
  A 1.03 1.03 0.0 0 1 230.72 349.08
  Q 231.24 348.65 231.97 348.78"
/>
<path stroke="#87753f" vector-effect="non-scaling-stroke" d="
  M 387.09 198.86
  Q 377.59 210.11 364.86 216.07
  A 1.68 1.66 77.4 0 0 363.90 217.60
  L 364.13 230.28"
/>
<path stroke="#211f1c" vector-effect="non-scaling-stroke" d="
  M 364.13 230.28
  C 362.75 227.67 359.70 217.13 363.05 215.31
  Q 374.17 209.27 379.79 204.05
  C 398.44 186.73 398.79 155.21 393.20 132.12
  C 389.43 116.58 383.65 103.21 373.11 91.38
  C 359.65 76.28 343.26 82.85 333.81 97.32
  C 320.51 117.70 312.53 147.58 316.49 171.74
  Q 321.35 201.46 347.70 214.75
  A 2.31 2.30 -80.7 0 1 348.94 216.48
  Q 349.56 220.80 349.63 225.50
  Q 350.02 252.00 349.46 278.50
  Q 349.35 284.11 348.70 289.69
  Q 348.47 291.74 346.97 292.51"
/>
<path stroke="#90804e" vector-effect="non-scaling-stroke" d="
  M 364.13 230.28
  L 364.86 255.75"
/>
<path stroke="#211f1c" vector-effect="non-scaling-stroke" d="
  M 364.86 255.75
  Q 364.26 256.36 364.19 256.93
  Q 362.88 268.03 363.03 279.17
  C 363.20 290.90 362.39 302.52 362.67 314.28
  Q 363.00 328.09 363.28 341.90
  C 363.35 345.26 364.19 349.17 364.22 352.00
  Q 364.34 366.68 364.57 380.95
  A 1.79 1.78 -2.0 0 1 362.87 382.76
  L 349.35 383.44
  A 1.51 1.51 0.0 0 1 347.76 381.84
  Q 349.13 357.01 347.90 332.15
  A 0.76 0.76 0.0 0 0 346.40 332.00
  L 346.07 333.26"
/>
<path stroke="#87753f" vector-effect="non-scaling-stroke" d="
  M 367.12 384.32
  L 364.86 255.75"
/>
<path stroke="#444844" vector-effect="non-scaling-stroke" d="
  M 432.00 413.59
  L 431.78 409.45
  Q 431.77 409.34 431.67 409.31
  Q 431.54 409.26 431.40 409.21
  A 0.19 0.18 10.1 0 0 431.15 409.38
  L 430.95 431.47"
/>
<path stroke="#151515" vector-effect="non-scaling-stroke" d="
  M 430.95 431.47
  Q 430.35 431.51 430.01 431.29"
/>
<path stroke="#444844" vector-effect="non-scaling-stroke" d="
  M 430.01 431.29
  L 0.99 431.23"
/>
<path stroke="#151515" vector-effect="non-scaling-stroke" d="
  M 0.99 431.23
  L 0.00 430.69"
/>
<path stroke="#595d59" vector-effect="non-scaling-stroke" d="
  M 432.00 419.27
  L 432.00 427.10"
/>
<path stroke="#595d59" vector-effect="non-scaling-stroke" d="
  M 431.20 432.00
  L 430.95 431.47"
/>
<path stroke="#595d59" vector-effect="non-scaling-stroke" d="
  M 0.99 431.23
  L 1.19 431.45
  Q 1.45 431.75 1.84 431.75
  L 91.94 432.00"
/>
<path stroke="#595d59" vector-effect="non-scaling-stroke" d="
  M 430.01 431.29
  L 423.15 432.00"
/>
<path stroke="#595d59" vector-effect="non-scaling-stroke" d="
  M 417.96 432.00
  L 399.16 432.00"
/>
<path stroke="#595d59" vector-effect="non-scaling-stroke" d="
  M 398.49 432.00
  L 392.65 432.00"
/>
<path stroke="#595d59" vector-effect="non-scaling-stroke" d="
  M 388.95 432.00
  L 343.43 432.00"
/>
<path stroke="#595d59" vector-effect="non-scaling-stroke" d="
  M 339.96 432.00
  L 312.67 432.00"
/>
<path stroke="#595d59" vector-effect="non-scaling-stroke" d="
  M 308.97 432.00
  L 292.66 432.00"
/>
<path stroke="#595d59" vector-effect="non-scaling-stroke" d="
  M 281.98 432.00
  Q 279.18 431.39 276.40 432.00"
/>
<path stroke="#595d59" vector-effect="non-scaling-stroke" d="
  M 262.96 432.00
  L 236.17 432.00"
/>
<path stroke="#595d59" vector-effect="non-scaling-stroke" d="
  M 235.99 432.00
  Q 233.53 431.39 231.15 432.00"
/>
<path stroke="#595d59" vector-effect="non-scaling-stroke" d="
  M 213.94 432.00
  L 124.43 432.00"
/>
</g>
<path fill="#000000" d="
  M 0.00 0.00
  L 431.02 0.00
  Q 431.07 185.25 430.98 370.50
  Q 430.98 371.89 431.45 375.89
  L 431.51 377.29
  L 415.29 379.22
  Q 415.12 378.49 415.38 378.03
  Q 415.84 377.18 416.87 376.73
  Q 417.34 376.53 417.41 376.02
  C 418.32 369.15 417.69 361.05 417.71 349.69
  C 417.92 264.13 417.71 142.17 417.80 18.81
  Q 417.80 15.82 417.34 11.42
  Q 417.24 10.46 415.05 10.26
  L 407.82 14.42
  L 375.05 33.74
  L 302.45 76.63
  C 293.78 79.61 297.00 92.58 297.00 99.49
  Q 297.00 243.32 297.00 386.79
  A 0.94 0.94 0.0 0 1 296.08 387.73
  L 276.24 388.23
  L 276.24 120.73
  A 0.86 0.84 32.1 0 0 276.15 120.35
  Q 276.01 120.07 276.01 119.75
  Q 276.01 65.38 275.99 10.97
  Q 275.99 10.31 275.42 10.63
  L 269.81 13.76
  L 241.25 30.71
  L 165.77 75.25
  L 157.39 79.89
  Q 154.96 79.80 154.97 82.75
  Q 155.03 97.67 155.33 112.61
  Q 155.34 113.11 155.75 113.41
  Q 156.30 113.81 157.27 113.99
  C 157.22 122.58 157.33 213.48 157.27 213.50
  A 0.31 0.29 -9.7 0 0 157.06 213.78
  L 157.06 354.20
  C 154.58 364.76 155.58 373.95 154.94 384.34
  Q 154.90 384.90 154.34 384.91
  L 148.23 385.05
  L 138.02 384.62
  Q 137.47 384.60 137.35 384.06
  Q 136.97 382.44 137.46 380.75
  L 137.47 202.30
  Q 139.56 190.82 137.36 180.66
  L 137.03 11.02
  A 0.63 0.63 0.0 0 0 136.09 10.47
  L 129.48 14.22
  L 129.01 14.55
  Q 126.98 14.06 125.80 16.52
  L 96.24 33.96
  L 26.25 75.31
  L 19.14 79.52
  Q 18.68 79.80 18.68 80.34
  L 18.49 300.98
  C 16.78 322.06 18.53 343.16 17.04 364.24
  Q 16.86 366.78 14.75 366.99
  Q 7.00 367.76 0.00 364.14
  L 0.00 0.00
  Z"
/>
<path fill="#889087" d="
  M 431.02 0.00
  L 432.00 0.00
  L 432.00 1.03
  L 432.00 18.59
  L 432.00 19.28
  L 432.00 32.84
  L 432.00 51.27
  Q 431.39 54.06 432.00 56.85
  L 432.00 71.30
  L 432.00 122.57
  L 432.00 145.30
  L 432.00 224.82
  L 432.00 227.27
  L 432.00 234.85
  L 432.00 241.27
  L 432.00 248.85
  Q 432.06 249.11 432.00 249.27
  L 432.00 256.85
  L 432.00 257.27
  L 432.00 264.85
  L 432.00 265.27
  L 432.00 272.85
  L 432.00 273.27
  L 432.00 280.85
  L 432.00 281.27
  L 432.00 288.85
  L 432.00 289.29
  L 432.00 312.82
  L 432.00 373.54
  L 431.45 375.89
  Q 430.98 371.89 430.98 370.50
  Q 431.07 185.25 431.02 0.00
  Z"
/>
<path fill="#2a2a2a" d="
  M 432.00 1.03
  L 432.00 18.59
  L 432.00 1.03
  Z"
/>
<path fill="#f6d671" d="
  M 415.05 10.26
  Q 415.21 16.56 415.18 22.25
  C 414.72 126.65 414.95 231.09 415.22 335.49
  C 415.25 346.02 414.78 363.81 415.38 378.03
  Q 415.12 378.49 415.29 379.22
  Q 415.32 380.35 413.07 380.29
  A 1.41 1.41 0.0 0 1 411.70 378.85
  C 412.57 325.84 411.69 272.65 411.78 219.62
  C 411.78 216.83 412.28 213.23 411.49 209.79
  Q 411.09 208.07 410.99 206.50
  C 410.82 203.62 410.03 200.84 410.12 198.24
  C 410.33 192.65 411.02 186.91 411.02 181.58
  Q 411.03 160.07 410.56 138.57
  C 410.41 131.90 412.03 124.82 411.99 118.32
  C 411.85 97.05 412.68 75.75 412.22 54.50
  Q 411.89 39.68 411.88 24.87
  Q 411.88 21.59 410.86 19.34
  Q 409.64 16.66 407.82 14.42
  L 415.05 10.26
  Z"
/>
<path fill="#f6d671" d="
  M 137.36 180.66
  Q 136.54 191.63 137.47 202.30
  L 137.46 380.75
  Q 137.23 380.29 137.24 379.72
  Q 137.24 379.45 136.97 379.39
  L 133.62 378.65
  Q 133.10 378.53 133.13 378.00
  C 134.56 350.95 134.79 329.39 134.09 302.18
  C 133.70 286.94 134.14 271.40 133.96 256.01
  Q 133.93 253.45 133.55 250.63
  C 132.74 244.58 133.08 239.07 133.63 231.13
  C 133.89 227.41 133.06 223.54 133.14 219.64
  C 133.30 211.26 133.09 202.94 133.03 194.56
  C 133.00 191.21 133.76 186.45 133.78 182.48
  C 133.86 163.97 133.15 145.15 134.32 126.69
  C 135.01 115.85 133.79 104.66 133.89 94.46
  C 134.05 78.56 133.89 62.67 133.78 46.77
  C 133.72 38.20 131.70 29.61 131.63 20.72
  C 131.61 18.34 132.75 16.39 129.81 14.99
  Q 129.54 14.87 129.51 14.70
  Q 129.47 14.52 129.48 14.22
  L 136.09 10.47
  A 0.63 0.63 0.0 0 1 137.03 11.02
  L 137.36 180.66
  Z"
/>
<path fill="#f6d671" d="
  M 276.24 388.23
  Q 274.20 388.55 272.52 387.88
  Q 272.01 387.67 271.99 387.12
  C 271.74 378.70 271.67 370.65 271.19 361.92
  Q 270.17 343.30 271.10 324.67
  Q 271.73 311.86 271.73 304.69
  Q 271.74 225.13 271.72 145.56
  Q 271.72 127.88 272.63 110.23
  Q 273.32 97.10 273.22 90.25
  Q 273.04 76.65 271.99 55.25
  Q 271.61 47.42 271.76 20.50
  Q 271.77 18.63 269.81 13.76
  L 275.42 10.63
  Q 275.99 10.31 275.99 10.97
  Q 276.01 65.38 276.01 119.75
  Q 276.01 120.07 276.15 120.35
  A 0.86 0.84 32.1 0 1 276.24 120.73
  L 276.24 388.23
  Z"
/>
<path fill="#18140d" d="
  M 415.05 10.26
  Q 417.24 10.46 417.34 11.42
  Q 417.80 15.82 417.80 18.81
  C 417.71 142.17 417.92 264.13 417.71 349.69
  C 417.69 361.05 418.32 369.15 417.41 376.02
  Q 417.34 376.53 416.87 376.73
  Q 415.84 377.18 415.38 378.03
  C 414.78 363.81 415.25 346.02 415.22 335.49
  C 414.95 231.09 414.72 126.65 415.18 22.25
  Q 415.21 16.56 415.05 10.26
  Z"
/>
<path fill="#f2c34f" d="
  M 269.81 13.76
  Q 271.77 18.63 271.76 20.50
  Q 271.61 47.42 271.99 55.25
  Q 273.04 76.65 273.22 90.25
  Q 273.32 97.10 272.63 110.23
  Q 271.72 127.88 271.72 145.56
  Q 271.74 225.13 271.73 304.69
  Q 271.73 311.86 271.10 324.67
  Q 270.17 343.30 271.19 361.92
  C 271.67 370.65 271.74 378.70 271.99 387.12
  Q 272.01 387.67 272.52 387.88
  Q 274.20 388.55 276.24 388.23
  L 296.08 387.73
  A 0.94 0.94 0.0 0 0 297.00 386.79
  Q 297.00 243.32 297.00 99.49
  C 297.00 92.58 293.78 79.61 302.45 76.63
  C 308.54 93.31 304.77 112.78 304.87 130.13
  C 305.34 206.45 304.69 267.79 304.74 369.69
  Q 304.74 377.29 305.25 381.97
  C 305.42 383.60 305.36 384.66 304.82 386.11
  A 0.83 0.82 -80.9 0 0 305.62 387.22
  L 344.68 385.98
  Q 344.93 385.97 345.03 385.74
  L 345.13 385.49
  Q 345.27 385.98 345.50 385.96
  Q 356.50 385.33 367.12 384.32
  L 376.83 383.36
  A 2.02 2.01 -86.6 0 0 378.61 381.77
  Q 381.33 369.26 381.31 357.25
  Q 381.21 304.58 381.30 251.91
  C 381.32 241.07 381.96 229.32 382.19 218.01
  C 382.33 211.23 383.64 208.31 387.27 203.05
  Q 389.49 199.86 387.09 198.86
  C 405.05 169.72 400.34 130.99 383.62 102.39
  Q 379.15 94.76 374.72 89.55
  Q 374.40 80.27 374.33 71.56
  C 374.24 60.63 375.51 46.45 375.05 33.74
  L 407.82 14.42
  Q 409.64 16.66 410.86 19.34
  Q 411.88 21.59 411.88 24.87
  Q 411.89 39.68 412.22 54.50
  C 412.68 75.75 411.85 97.05 411.99 118.32
  C 412.03 124.82 410.41 131.90 410.56 138.57
  Q 411.03 160.07 411.02 181.58
  C 411.02 186.91 410.33 192.65 410.12 198.24
  C 410.03 200.84 410.82 203.62 410.99 206.50
  Q 411.09 208.07 411.49 209.79
  C 412.28 213.23 411.78 216.83 411.78 219.62
  C 411.69 272.65 412.57 325.84 411.70 378.85
  A 1.41 1.41 0.0 0 0 413.07 380.29
  Q 415.32 380.35 415.29 379.22
  L 431.51 377.29
  Q 431.68 377.27 432.00 377.56
  L 432.00 406.81
  Q 273.75 432.29 114.22 414.02
  Q 113.81 411.09 112.53 408.48
  C 109.18 401.65 105.32 394.74 104.71 387.00
  Q 104.52 384.67 104.21 383.35
  A 1.18 1.17 -84.2 0 0 103.56 382.55
  C 99.13 380.48 95.66 378.98 95.60 373.43
  C 95.55 369.68 96.35 365.30 96.32 361.52
  C 96.02 323.40 96.39 285.36 95.23 247.25
  Q 94.88 235.78 97.38 213.68
  C 97.58 211.94 99.14 207.97 97.42 206.08
  Q 108.07 189.17 106.75 169.99
  Q 104.19 132.89 96.96 77.92
  Q 93.49 56.47 97.56 34.51
  Q 97.68 33.85 96.24 33.96
  L 125.80 16.52
  Q 127.63 15.91 129.01 14.55
  L 129.48 14.22
  Q 129.47 14.52 129.51 14.70
  Q 129.54 14.87 129.81 14.99
  C 132.75 16.39 131.61 18.34 131.63 20.72
  C 131.70 29.61 133.72 38.20 133.78 46.77
  C 133.89 62.67 134.05 78.56 133.89 94.46
  C 133.79 104.66 135.01 115.85 134.32 126.69
  C 133.15 145.15 133.86 163.97 133.78 182.48
  C 133.76 186.45 133.00 191.21 133.03 194.56
  C 133.09 202.94 133.30 211.26 133.14 219.64
  C 133.06 223.54 133.89 227.41 133.63 231.13
  C 133.08 239.07 132.74 244.58 133.55 250.63
  Q 133.93 253.45 133.96 256.01
  C 134.14 271.40 133.70 286.94 134.09 302.18
  C 134.79 329.39 134.56 350.95 133.13 378.00
  Q 133.10 378.53 133.62 378.65
  L 136.97 379.39
  Q 137.24 379.45 137.24 379.72
  Q 137.23 380.29 137.46 380.75
  Q 136.97 382.44 137.35 384.06
  Q 137.47 384.60 138.02 384.62
  L 148.23 385.05
  L 156.67 385.48
  Q 157.20 385.51 157.19 384.97
  L 157.06 354.20
  L 157.06 213.78
  A 0.31 0.29 -9.7 0 1 157.27 213.50
  C 157.33 213.48 157.22 122.58 157.27 113.99
  L 157.39 79.89
  L 165.77 75.25
  C 165.93 91.34 166.87 106.97 166.15 123.08
  C 165.57 136.26 165.28 151.09 166.15 164.50
  C 167.73 189.19 166.65 214.43 166.68 239.19
  C 166.69 247.58 166.81 255.69 166.24 264.17
  C 164.97 283.25 164.57 295.18 166.20 310.75
  Q 166.80 316.41 166.33 323.25
  C 165.61 333.78 166.41 344.43 166.42 355.25
  C 166.43 362.64 167.07 369.52 166.39 377.58
  C 166.19 379.91 166.42 382.00 166.65 384.27
  C 167.06 388.22 169.44 387.02 172.16 387.15
  Q 190.89 388.08 210.71 388.23
  L 232.85 388.89
  Q 235.52 390.89 239.12 389.84
  Q 239.63 389.70 239.86 389.23
  Q 240.68 387.58 240.75 385.99
  Q 241.18 375.99 241.69 355.56
  C 241.84 349.58 241.21 343.67 241.32 337.67
  C 241.80 308.67 240.29 280.27 241.17 250.75
  Q 241.49 240.13 241.48 230.74
  Q 241.46 177.84 241.46 124.94
  C 241.46 97.59 241.23 70.26 241.24 42.92
  C 241.24 38.89 239.59 35.72 242.03 31.27
  Q 242.33 30.73 241.71 30.72
  L 241.25 30.71
  L 269.81 13.76
  Z"
/>
<path fill="#2a2a2a" d="
  M 129.01 14.55
  Q 127.63 15.91 125.80 16.52
  Q 126.98 14.06 129.01 14.55
  Z"
/>
<path fill="#2a2a2a" d="
  M 432.00 19.28
  L 432.00 32.84
  L 432.00 19.28
  Z"
/>
<path fill="#f6d671" d="
  M 241.25 30.71
  L 241.71 30.72
  Q 242.33 30.73 242.03 31.27
  C 239.59 35.72 241.24 38.89 241.24 42.92
  C 241.23 70.26 241.46 97.59 241.46 124.94
  Q 241.46 177.84 241.48 230.74
  Q 241.49 240.13 241.17 250.75
  C 240.29 280.27 241.80 308.67 241.32 337.67
  C 241.21 343.67 241.84 349.58 241.69 355.56
  Q 241.18 375.99 240.75 385.99
  Q 240.68 387.58 239.86 389.23
  Q 239.63 389.70 239.12 389.84
  Q 235.52 390.89 232.85 388.89
  L 231.97 348.78
  L 231.37 326.65
  C 229.92 246.26 230.51 165.74 231.78 90.50
  Q 231.87 84.98 228.94 82.02
  C 218.75 71.71 208.18 101.39 206.05 107.76
  C 195.19 140.13 171.04 231.23 212.02 250.50
  A 2.14 2.12 -77.3 0 1 213.25 252.47
  L 210.71 388.23
  Q 190.89 388.08 172.16 387.15
  C 169.44 387.02 167.06 388.22 166.65 384.27
  C 166.42 382.00 166.19 379.91 166.39 377.58
  C 167.07 369.52 166.43 362.64 166.42 355.25
  C 166.41 344.43 165.61 333.78 166.33 323.25
  Q 166.80 316.41 166.20 310.75
  C 164.57 295.18 164.97 283.25 166.24 264.17
  C 166.81 255.69 166.69 247.58 166.68 239.19
  C 166.65 214.43 167.73 189.19 166.15 164.50
  C 165.28 151.09 165.57 136.26 166.15 123.08
  C 166.87 106.97 165.93 91.34 165.77 75.25
  L 241.25 30.71
  Z"
/>
<path fill="#f6d671" d="
  M 375.05 33.74
  C 375.51 46.45 374.24 60.63 374.33 71.56
  Q 374.40 80.27 374.72 89.55
  C 365.62 81.40 355.95 76.40 344.73 83.76
  Q 337.64 88.42 334.71 92.52
  C 308.91 128.60 299.30 191.69 346.78 216.30
  A 1.47 1.46 -76.3 0 1 347.56 217.60
  L 346.97 292.51
  L 346.07 333.26
  L 345.13 385.49
  L 345.03 385.74
  Q 344.93 385.97 344.68 385.98
  L 305.62 387.22
  A 0.83 0.82 -80.9 0 1 304.82 386.11
  C 305.36 384.66 305.42 383.60 305.25 381.97
  Q 304.74 377.29 304.74 369.69
  C 304.69 267.79 305.34 206.45 304.87 130.13
  C 304.77 112.78 308.54 93.31 302.45 76.63
  L 375.05 33.74
  Z"
/>
<path fill="#f6d671" d="
  M 96.24 33.96
  Q 97.68 33.85 97.56 34.51
  Q 93.49 56.47 96.96 77.92
  C 96.77 103.73 95.84 129.42 96.15 155.25
  C 96.18 158.21 94.98 162.40 91.36 160.94
  A 2.28 2.27 9.3 0 1 89.95 158.98
  L 84.86 80.66
  Q 84.81 80.00 84.15 80.00
  L 83.84 80.00
  Q 83.15 80.00 83.12 80.69
  C 82.27 98.59 82.25 116.59 81.49 134.36
  C 81.14 142.54 81.55 150.88 80.22 158.99
  C 79.65 162.49 75.07 162.57 74.90 158.49
  Q 73.37 119.87 71.97 81.25
  Q 71.94 80.62 71.71 80.32
  Q 71.31 79.79 70.60 80.07
  Q 70.14 80.26 70.10 80.76
  C 68.42 106.10 67.40 130.31 65.16 157.76
  C 64.94 160.42 63.44 161.95 60.77 160.64
  Q 60.33 160.43 60.12 159.98
  Q 59.26 158.16 59.26 157.19
  Q 59.25 119.37 59.03 81.56
  Q 59.02 79.96 57.76 80.03
  A 1.30 1.29 -88.5 0 0 56.53 81.20
  C 56.07 85.86 56.05 90.84 55.58 95.18
  Q 51.73 131.07 49.24 167.08
  C 47.94 185.90 50.68 204.13 68.68 214.36
  A 1.61 1.61 0.0 0 1 69.48 215.77
  L 66.87 376.43
  A 0.91 0.90 3.9 0 0 67.67 377.34
  L 87.76 379.93
  A 0.47 0.47 0.0 0 0 88.29 379.46
  C 87.53 338.18 87.44 297.17 86.37 256.06
  Q 85.85 235.75 86.03 215.36
  Q 86.03 214.84 86.48 214.58
  Q 92.42 211.13 97.42 206.08
  C 99.14 207.97 97.58 211.94 97.38 213.68
  Q 94.88 235.78 95.23 247.25
  C 96.39 285.36 96.02 323.40 96.32 361.52
  C 96.35 365.30 95.55 369.68 95.60 373.43
  C 95.66 378.98 99.13 380.48 103.56 382.55
  A 1.18 1.17 -84.2 0 1 104.21 383.35
  Q 104.52 384.67 104.71 387.00
  C 105.32 394.74 109.18 401.65 112.53 408.48
  Q 113.81 411.09 114.22 414.02
  Q 56.58 407.75 0.00 394.73
  L 0.00 366.87
  L 18.66 370.10
  Q 20.98 371.41 23.59 370.20
  Q 24.04 369.99 24.25 369.53
  Q 26.30 365.01 26.49 361.75
  Q 27.16 350.02 27.03 328.94
  C 26.88 304.04 25.94 278.89 27.21 254.02
  Q 28.24 233.87 27.33 213.72
  Q 26.76 201.09 26.76 193.75
  Q 26.79 156.33 26.97 118.91
  C 27.01 110.37 26.58 96.09 26.94 84.25
  Q 27.06 80.45 26.25 75.31
  L 96.24 33.96
  Z"
/>
<path fill="#2a2a2a" d="
  M 432.00 51.27
  L 432.00 56.85
  Q 431.39 54.06 432.00 51.27
  Z"
/>
<path fill="#2a2a2a" d="
  M 432.00 71.30
  L 432.00 122.57
  L 432.00 71.30
  Z"
/>
<path fill="#f2c34f" d="
  M 26.25 75.31
  Q 27.06 80.45 26.94 84.25
  C 26.58 96.09 27.01 110.37 26.97 118.91
  Q 26.79 156.33 26.76 193.75
  Q 26.76 201.09 27.33 213.72
  Q 28.24 233.87 27.21 254.02
  C 25.94 278.89 26.88 304.04 27.03 328.94
  Q 27.16 350.02 26.49 361.75
  Q 26.30 365.01 24.25 369.53
  Q 24.04 369.99 23.59 370.20
  Q 20.98 371.41 18.66 370.10
  L 18.49 300.98
  L 18.68 80.34
  Q 18.68 79.80 19.14 79.52
  L 26.25 75.31
  Z"
/>
<path fill="#18140d" d="
  M 96.96 77.92
  Q 104.19 132.89 106.75 169.99
  Q 108.07 189.17 97.42 206.08
  Q 92.42 211.13 86.48 214.58
  Q 86.03 214.84 86.03 215.36
  Q 85.85 235.75 86.37 256.06
  C 87.44 297.17 87.53 338.18 88.29 379.46
  A 0.47 0.47 0.0 0 1 87.76 379.93
  L 67.67 377.34
  A 0.91 0.90 3.9 0 1 66.87 376.43
  L 69.48 215.77
  A 1.61 1.61 0.0 0 0 68.68 214.36
  C 50.68 204.13 47.94 185.90 49.24 167.08
  Q 51.73 131.07 55.58 95.18
  C 56.05 90.84 56.07 85.86 56.53 81.20
  A 1.30 1.29 -88.5 0 1 57.76 80.03
  Q 59.02 79.96 59.03 81.56
  Q 59.25 119.37 59.26 157.19
  Q 59.26 158.16 60.12 159.98
  Q 60.33 160.43 60.77 160.64
  C 63.44 161.95 64.94 160.42 65.16 157.76
  C 67.40 130.31 68.42 106.10 70.10 80.76
  Q 70.14 80.26 70.60 80.07
  Q 71.31 79.79 71.71 80.32
  Q 71.94 80.62 71.97 81.25
  Q 73.37 119.87 74.90 158.49
  C 75.07 162.57 79.65 162.49 80.22 158.99
  C 81.55 150.88 81.14 142.54 81.49 134.36
  C 82.25 116.59 82.27 98.59 83.12 80.69
  Q 83.15 80.00 83.84 80.00
  L 84.15 80.00
  Q 84.81 80.00 84.86 80.66
  L 89.95 158.98
  A 2.28 2.27 9.3 0 0 91.36 160.94
  C 94.98 162.40 96.18 158.21 96.15 155.25
  C 95.84 129.42 96.77 103.73 96.96 77.92
  Z
  M 84.31 259.81
  Q 84.57 250.24 84.28 244.74
  C 83.87 236.96 83.27 228.71 83.72 220.95
  C 83.91 217.68 83.71 214.10 86.53 212.50
  C 103.22 203.09 106.20 181.66 104.09 164.23
  Q 102.18 148.43 100.26 132.44
  A 0.64 0.64 0.0 0 0 98.98 132.47
  C 98.58 138.89 100.77 160.84 95.07 163.33
  C 84.91 167.77 85.64 142.26 85.96 137.91
  Q 85.97 137.76 85.85 137.69
  L 85.54 137.51
  Q 84.95 137.16 84.91 137.84
  Q 84.30 148.42 82.26 158.83
  C 81.12 164.58 73.95 165.39 72.45 159.56
  C 70.69 152.73 71.13 145.26 71.17 138.25
  Q 71.18 136.62 69.83 137.26
  A 0.79 0.79 0.0 0 0 69.37 137.91
  Q 68.47 146.97 68.20 155.96
  C 67.96 163.84 59.01 166.36 57.05 158.64
  Q 56.41 156.11 56.47 153.75
  Q 56.78 142.12 56.53 134.00
  Q 56.43 130.45 57.20 126.99
  Q 57.45 125.89 56.72 125.64
  A 0.74 0.73 13.8 0 0 55.75 126.22
  Q 53.25 142.30 51.98 158.45
  C 50.55 176.51 49.12 195.30 63.66 208.95
  C 65.41 210.59 67.76 211.67 69.83 212.88
  A 2.90 2.90 0.0 0 1 71.28 215.34
  C 71.78 249.65 70.91 284.21 69.66 318.51
  C 68.97 337.25 69.27 355.85 69.28 374.48
  A 1.13 1.13 0.0 0 0 70.25 375.59
  L 85.52 377.73
  A 1.02 1.01 -84.0 0 0 86.68 376.79
  Q 87.39 365.47 86.44 353.98
  C 83.74 321.39 83.53 288.61 84.31 259.81
  Z"
/>
<path fill="#18140d" d="
  M 157.39 79.89
  L 157.27 113.99
  Q 156.30 113.81 155.75 113.41
  Q 155.34 113.11 155.33 112.61
  Q 155.03 97.67 154.97 82.75
  Q 154.96 79.80 157.39 79.89
  Z"
/>
<path fill="#000000" d="
  M 231.37 326.65
  Q 230.07 324.65 229.97 322.00
  C 228.93 295.44 227.76 265.53 227.87 235.94
  Q 228.08 175.89 229.03 115.85
  C 229.15 108.37 229.74 101.14 230.31 93.76
  C 230.62 89.64 229.48 83.57 225.11 82.17
  A 1.44 1.43 45.3 0 0 224.25 82.16
  Q 219.67 83.54 217.75 87.29
  C 207.03 108.27 199.72 132.98 195.20 157.65
  Q 193.47 167.12 192.46 177.44
  C 190.14 201.02 188.19 237.50 214.38 249.91
  Q 214.85 250.13 214.93 250.65
  Q 215.20 252.57 215.20 254.50
  C 215.17 265.32 214.30 276.63 214.26 286.84
  C 214.19 303.82 213.27 320.93 213.37 337.76
  Q 213.50 360.68 213.14 384.68
  A 2.61 2.61 0.0 0 0 215.81 387.33
  L 228.60 387.02
  Q 230.17 386.98 230.18 385.40
  L 230.36 349.84
  A 1.03 1.03 0.0 0 1 230.72 349.08
  Q 231.24 348.65 231.97 348.78
  L 232.85 388.89
  L 210.71 388.23
  L 213.25 252.47
  A 2.14 2.12 -77.3 0 0 212.02 250.50
  C 171.04 231.23 195.19 140.13 206.05 107.76
  C 208.18 101.39 218.75 71.71 228.94 82.02
  Q 231.87 84.98 231.78 90.50
  C 230.51 165.74 229.92 246.26 231.37 326.65
  Z"
/>
<path fill="#18140d" d="
  M 374.72 89.55
  Q 379.15 94.76 383.62 102.39
  C 400.34 130.99 405.05 169.72 387.09 198.86
  Q 377.59 210.11 364.86 216.07
  A 1.68 1.66 77.4 0 0 363.90 217.60
  L 364.13 230.28
  C 362.75 227.67 359.70 217.13 363.05 215.31
  Q 374.17 209.27 379.79 204.05
  C 398.44 186.73 398.79 155.21 393.20 132.12
  C 389.43 116.58 383.65 103.21 373.11 91.38
  C 359.65 76.28 343.26 82.85 333.81 97.32
  C 320.51 117.70 312.53 147.58 316.49 171.74
  Q 321.35 201.46 347.70 214.75
  A 2.31 2.30 -80.7 0 1 348.94 216.48
  Q 349.56 220.80 349.63 225.50
  Q 350.02 252.00 349.46 278.50
  Q 349.35 284.11 348.70 289.69
  Q 348.47 291.74 346.97 292.51
  L 347.56 217.60
  A 1.47 1.46 -76.3 0 0 346.78 216.30
  C 299.30 191.69 308.91 128.60 334.71 92.52
  Q 337.64 88.42 344.73 83.76
  C 355.95 76.40 365.62 81.40 374.72 89.55
  Z"
/>
<path fill="#2a2a2a" d="
  M 231.37 326.65
  L 231.97 348.78
  Q 231.24 348.65 230.72 349.08
  A 1.03 1.03 0.0 0 0 230.36 349.84
  L 230.18 385.40
  Q 230.17 386.98 228.60 387.02
  L 215.81 387.33
  A 2.61 2.61 0.0 0 1 213.14 384.68
  Q 213.50 360.68 213.37 337.76
  C 213.27 320.93 214.19 303.82 214.26 286.84
  C 214.30 276.63 215.17 265.32 215.20 254.50
  Q 215.20 252.57 214.93 250.65
  Q 214.85 250.13 214.38 249.91
  C 188.19 237.50 190.14 201.02 192.46 177.44
  Q 193.47 167.12 195.20 157.65
  C 199.72 132.98 207.03 108.27 217.75 87.29
  Q 219.67 83.54 224.25 82.16
  A 1.44 1.43 45.3 0 1 225.11 82.17
  C 229.48 83.57 230.62 89.64 230.31 93.76
  C 229.74 101.14 229.15 108.37 229.03 115.85
  Q 228.08 175.89 227.87 235.94
  C 227.76 265.53 228.93 295.44 229.97 322.00
  Q 230.07 324.65 231.37 326.65
  Z"
/>
<path fill="#2a2a2a" d="
  M 364.13 230.28
  L 364.86 255.75
  Q 364.26 256.36 364.19 256.93
  Q 362.88 268.03 363.03 279.17
  C 363.20 290.90 362.39 302.52 362.67 314.28
  Q 363.00 328.09 363.28 341.90
  C 363.35 345.26 364.19 349.17 364.22 352.00
  Q 364.34 366.68 364.57 380.95
  A 1.79 1.78 -2.0 0 1 362.87 382.76
  L 349.35 383.44
  A 1.51 1.51 0.0 0 1 347.76 381.84
  Q 349.13 357.01 347.90 332.15
  A 0.76 0.76 0.0 0 0 346.40 332.00
  L 346.07 333.26
  L 346.97 292.51
  Q 348.47 291.74 348.70 289.69
  Q 349.35 284.11 349.46 278.50
  Q 350.02 252.00 349.63 225.50
  Q 349.56 220.80 348.94 216.48
  A 2.31 2.30 -80.7 0 0 347.70 214.75
  Q 321.35 201.46 316.49 171.74
  C 312.53 147.58 320.51 117.70 333.81 97.32
  C 343.26 82.85 359.65 76.28 373.11 91.38
  C 383.65 103.21 389.43 116.58 393.20 132.12
  C 398.79 155.21 398.44 186.73 379.79 204.05
  Q 374.17 209.27 363.05 215.31
  C 359.70 217.13 362.75 227.67 364.13 230.28
  Z"
/>
<path fill="#2a2a2a" d="
  M 84.31 259.81
  C 83.53 288.61 83.74 321.39 86.44 353.98
  Q 87.39 365.47 86.68 376.79
  A 1.02 1.01 -84.0 0 1 85.52 377.73
  L 70.25 375.59
  A 1.13 1.13 0.0 0 1 69.28 374.48
  C 69.27 355.85 68.97 337.25 69.66 318.51
  C 70.91 284.21 71.78 249.65 71.28 215.34
  A 2.90 2.90 0.0 0 0 69.83 212.88
  C 67.76 211.67 65.41 210.59 63.66 208.95
  C 49.12 195.30 50.55 176.51 51.98 158.45
  Q 53.25 142.30 55.75 126.22
  A 0.74 0.73 13.8 0 1 56.72 125.64
  Q 57.45 125.89 57.20 126.99
  Q 56.43 130.45 56.53 134.00
  Q 56.78 142.12 56.47 153.75
  Q 56.41 156.11 57.05 158.64
  C 59.01 166.36 67.96 163.84 68.20 155.96
  Q 68.47 146.97 69.37 137.91
  A 0.79 0.79 0.0 0 1 69.83 137.26
  Q 71.18 136.62 71.17 138.25
  C 71.13 145.26 70.69 152.73 72.45 159.56
  C 73.95 165.39 81.12 164.58 82.26 158.83
  Q 84.30 148.42 84.91 137.84
  Q 84.95 137.16 85.54 137.51
  L 85.85 137.69
  Q 85.97 137.76 85.96 137.91
  C 85.64 142.26 84.91 167.77 95.07 163.33
  C 100.77 160.84 98.58 138.89 98.98 132.47
  A 0.64 0.64 0.0 0 1 100.26 132.44
  Q 102.18 148.43 104.09 164.23
  C 106.20 181.66 103.22 203.09 86.53 212.50
  C 83.71 214.10 83.91 217.68 83.72 220.95
  C 83.27 228.71 83.87 236.96 84.28 244.74
  Q 84.57 250.24 84.31 259.81
  Z"
/>
<path fill="#2a2a2a" d="
  M 432.00 145.30
  L 432.00 224.82
  L 432.00 145.30
  Z"
/>
<path fill="#2a2a2a" d="
  M 137.36 180.66
  Q 139.56 190.82 137.47 202.30
  Q 136.54 191.63 137.36 180.66
  Z"
/>
<path fill="#f6d671" d="
  M 387.09 198.86
  Q 389.49 199.86 387.27 203.05
  C 383.64 208.31 382.33 211.23 382.19 218.01
  C 381.96 229.32 381.32 241.07 381.30 251.91
  Q 381.21 304.58 381.31 357.25
  Q 381.33 369.26 378.61 381.77
  A 2.02 2.01 -86.6 0 1 376.83 383.36
  L 367.12 384.32
  L 364.86 255.75
  L 364.13 230.28
  L 363.90 217.60
  A 1.68 1.66 77.4 0 1 364.86 216.07
  Q 377.59 210.11 387.09 198.86
  Z"
/>
<path fill="#2a2a2a" d="
  M 432.00 227.27
  L 432.00 234.85
  L 432.00 227.27
  Z"
/>
<path fill="#2a2a2a" d="
  M 432.00 241.27
  L 432.00 248.85
  L 432.00 241.27
  Z"
/>
<path fill="#2a2a2a" d="
  M 432.00 249.27
  L 432.00 256.85
  L 432.00 249.27
  Z"
/>
<path fill="#18140d" d="
  M 364.86 255.75
  L 367.12 384.32
  Q 356.50 385.33 345.50 385.96
  Q 345.27 385.98 345.13 385.49
  L 346.07 333.26
  L 346.40 332.00
  A 0.76 0.76 0.0 0 1 347.90 332.15
  Q 349.13 357.01 347.76 381.84
  A 1.51 1.51 0.0 0 0 349.35 383.44
  L 362.87 382.76
  A 1.79 1.78 -2.0 0 0 364.57 380.95
  Q 364.34 366.68 364.22 352.00
  C 364.19 349.17 363.35 345.26 363.28 341.90
  Q 363.00 328.09 362.67 314.28
  C 362.39 302.52 363.20 290.90 363.03 279.17
  Q 362.88 268.03 364.19 256.93
  Q 364.26 256.36 364.86 255.75
  Z"
/>
<path fill="#2a2a2a" d="
  M 432.00 257.27
  L 432.00 264.85
  L 432.00 257.27
  Z"
/>
<path fill="#2a2a2a" d="
  M 432.00 265.27
  L 432.00 272.85
  L 432.00 265.27
  Z"
/>
<path fill="#2a2a2a" d="
  M 432.00 273.27
  L 432.00 280.85
  L 432.00 273.27
  Z"
/>
<path fill="#2a2a2a" d="
  M 432.00 281.27
  L 432.00 288.85
  L 432.00 281.27
  Z"
/>
<path fill="#2a2a2a" d="
  M 432.00 289.29
  L 432.00 312.82
  L 432.00 289.29
  Z"
/>
<path fill="#18140d" d="
  M 18.49 300.98
  L 18.66 370.10
  L 0.00 366.87
  L 0.00 364.14
  Q 7.00 367.76 14.75 366.99
  Q 16.86 366.78 17.04 364.24
  C 18.53 343.16 16.78 322.06 18.49 300.98
  Z"
/>
<path fill="#18140d" d="
  M 157.06 354.20
  L 157.19 384.97
  Q 157.20 385.51 156.67 385.48
  L 148.23 385.05
  L 154.34 384.91
  Q 154.90 384.90 154.94 384.34
  C 155.58 373.95 154.58 364.76 157.06 354.20
  Z"
/>
<path fill="#2a2a2a" d="
  M 432.00 373.54
  L 432.00 377.56
  Q 431.68 377.27 431.51 377.29
  L 431.45 375.89
  L 432.00 373.54
  Z"
/>
<path fill="#000000" d="
  M 0.00 394.73
  Q 56.58 407.75 114.22 414.02
  Q 273.75 432.29 432.00 406.81
  L 432.00 413.59
  L 431.78 409.45
  Q 431.77 409.34 431.67 409.31
  Q 431.54 409.26 431.40 409.21
  A 0.19 0.18 10.1 0 0 431.15 409.38
  L 430.95 431.47
  Q 430.35 431.51 430.01 431.29
  L 0.99 431.23
  L 0.00 430.69
  L 0.00 394.73
  Z"
/>
<path fill="#889087" d="
  M 432.00 413.59
  L 432.00 419.27
  L 432.00 427.10
  L 432.00 432.00
  L 431.20 432.00
  L 430.95 431.47
  L 431.15 409.38
  A 0.19 0.18 10.1 0 1 431.40 409.21
  Q 431.54 409.26 431.67 409.31
  Q 431.77 409.34 431.78 409.45
  L 432.00 413.59
  Z"
/>
<path fill="#2a2a2a" d="
  M 432.00 419.27
  L 432.00 427.10
  L 432.00 419.27
  Z"
/>
<path fill="#2a2a2a" d="
  M 0.00 430.69
  L 0.99 431.23
  L 1.19 431.45
  Q 1.45 431.75 1.84 431.75
  L 91.94 432.00
  L 0.00 432.00
  L 0.00 430.69
  Z"
/>
<path fill="#889087" d="
  M 430.01 431.29
  L 423.15 432.00
  L 417.96 432.00
  L 399.16 432.00
  L 398.49 432.00
  L 392.65 432.00
  L 388.95 432.00
  L 343.43 432.00
  L 339.96 432.00
  L 312.67 432.00
  L 308.97 432.00
  L 292.66 432.00
  L 281.98 432.00
  Q 279.18 431.39 276.40 432.00
  L 262.96 432.00
  L 236.17 432.00
  Q 236.08 431.96 235.99 432.00
  Q 233.53 431.39 231.15 432.00
  L 213.94 432.00
  L 124.43 432.00
  L 91.94 432.00
  L 1.84 431.75
  Q 1.45 431.75 1.19 431.45
  L 0.99 431.23
  L 430.01 431.29
  Z"
/>
<path fill="#2a2a2a" d="
  M 430.01 431.29
  Q 430.35 431.51 430.95 431.47
  L 431.20 432.00
  L 423.15 432.00
  L 430.01 431.29
  Z"
/>
<path fill="#2a2a2a" d="
  M 213.94 432.00
  L 124.43 432.00
  L 213.94 432.00
  Z"
/>
<path fill="#2a2a2a" d="
  M 235.99 432.00
  L 231.15 432.00
  Q 233.53 431.39 235.99 432.00
  Z"
/>
<path fill="#2a2a2a" d="
  M 262.96 432.00
  L 236.17 432.00
  L 262.96 432.00
  Z"
/>
<path fill="#2a2a2a" d="
  M 281.98 432.00
  L 276.40 432.00
  Q 279.18 431.39 281.98 432.00
  Z"
/>
<path fill="#2a2a2a" d="
  M 308.97 432.00
  L 292.66 432.00
  L 308.97 432.00
  Z"
/>
<path fill="#2a2a2a" d="
  M 339.96 432.00
  L 312.67 432.00
  L 339.96 432.00
  Z"
/>
<path fill="#2a2a2a" d="
  M 388.95 432.00
  L 343.43 432.00
  L 388.95 432.00
  Z"
/>
<path fill="#2a2a2a" d="
  M 398.49 432.00
  L 392.65 432.00
  L 398.49 432.00
  Z"
/>
<path fill="#2a2a2a" d="
  M 417.96 432.00
  L 399.16 432.00
  L 417.96 432.00
  Z"
/>
</svg>
