<svg width="24px" height="24px" viewBox="0 0 24 24" version="1.1" xmlns="http://www.w3.org/2000/svg"><g id="Artboard" stroke="none" stroke-width="1" fill="none" fill-rule="evenodd"><rect id="Rectangle" x="0" y="0" width="24" height="24"></rect><g id="Google_&quot;G&quot;_Logo" transform="translate(-0.000000, 0.000000)" fill-rule="nonzero"><path d="M23.9775701,12.2813187 C23.9775701,11.4681319 23.9102804,10.6505495 23.766729,9.85054945 L12.251215,9.85054945 L12.251215,14.4571429 L18.8456075,14.4571429 C18.5719626,15.9428571 17.6927103,17.2571429 16.4052336,18.0923077 L16.4052336,21.0813187 L20.3394393,21.0813187 C22.6497196,18.9978022 23.9775701,15.9208791 23.9775701,12.2813187 Z" id="Path" fill="#4285F4"></path><path d="M12.251215,23.9692308 C15.5439252,23.9692308 18.3207477,22.9098901 20.3439252,21.0813187 L16.4097196,18.0923077 C15.3151402,18.821978 13.9020561,19.2351648 12.2557009,19.2351648 C9.07065421,19.2351648 6.37009346,17.1296703 5.4011215,14.2989011 L1.34130841,14.2989011 L1.34130841,17.3802198 C3.41383178,21.4197802 7.63514019,23.9692308 12.251215,23.9692308 Z" id="Path" fill="#34A853"></path><path d="M5.39663551,14.2989011 C4.88523364,12.8131868 4.88523364,11.2043956 5.39663551,9.71868132 L5.39663551,6.63736264 L1.34130841,6.63736264 C-0.390280374,10.0175824 -0.390280374,14 1.34130841,17.3802198 L5.39663551,14.2989011 Z" id="Path" fill="#FBBC04"></path><path d="M12.251215,4.77802198 C13.9917757,4.75164835 15.6740187,5.39340659 16.9345794,6.57142857 L16.9345794,6.57142857 L20.4201869,3.15604396 C18.2130841,1.12527473 15.2837383,0.00879120879 12.251215,0.043956044 C7.63514019,0.043956044 3.41383178,2.59340659 1.34130841,6.63736264 L5.39663551,9.71868132 C6.3611215,6.88351648 9.06616822,4.77802198 12.251215,4.77802198 Z" id="Path" fill="#EA4335"></path></g></g></svg>