<?xml version="1.0" encoding="UTF-8" standalone="no"?>
<!DOCTYPE svg PUBLIC "-//W3C//DTD SVG 1.1//EN" "http://www.w3.org/Graphics/SVG/1.1/DTD/svg11.dtd">
<svg xmlns="http://www.w3.org/2000/svg" version="1.1" viewBox="0.00 0.00 877.00 896.00">
<g stroke-width="2.00" fill="none" stroke-linecap="butt">
<path stroke="#85da8b" vector-effect="non-scaling-stroke" d="
  M 298.29 19.32
  L 298.05 19.57
  Q 297.78 19.84 297.40 19.83
  L 275.59 19.35"
/>
<path stroke="#31c13b" vector-effect="non-scaling-stroke" d="
  M 300.98 19.93
  Q 335.31 22.07 369.96 27.84
  Q 371.10 28.03 370.87 29.16
  C 368.82 39.05 363.96 46.33 357.53 54.03
  C 351.99 60.66 348.50 70.27 345.56 78.43"
/>
<path stroke="#459c49" vector-effect="non-scaling-stroke" d="
  M 345.56 78.43
  Q 312.40 76.91 279.32 77.20
  C 177.99 78.10 91.37 138.65 68.61 239.90
  Q 68.56 240.12 68.28 240.29
  A 0.92 0.91 -8.6 0 0 67.84 240.88
  C 64.25 256.87 63.18 266.89 61.19 285.93
  C 60.29 294.51 60.88 303.45 60.20 312.07
  Q 59.72 318.14 59.77 321.95
  C 60.06 348.27 60.75 374.64 61.18 400.94"
/>
<path stroke="#31c13b" vector-effect="non-scaling-stroke" d="
  M 61.18 400.94
  L 59.53 418.88
  Q 59.48 419.36 59.00 419.38
  Q 52.53 419.60 46.11 420.51
  C 37.16 421.79 32.63 421.53 28.30 428.49
  Q 27.73 429.40 26.71 429.00"
/>
<path stroke="#4bc853" vector-effect="non-scaling-stroke" d="
  M 26.71 429.00
  Q 27.55 421.20 30.71 399.00
  C 36.45 358.70 41.48 325.14 47.09 288.28
  Q 51.21 261.23 55.73 234.26"
/>
<path stroke="#5dcf65" vector-effect="non-scaling-stroke" d="
  M 55.73 234.26
  Q 57.84 220.08 60.42 206.00
  C 61.50 200.10 63.41 194.23 64.98 188.32
  Q 77.75 140.32 108.60 101.55"
/>
<path stroke="#6bd273" vector-effect="non-scaling-stroke" d="
  M 108.60 101.55
  Q 120.21 87.76 133.41 75.40
  Q 133.68 75.15 132.97 74.81"
/>
<path stroke="#5dcf65" vector-effect="non-scaling-stroke" d="
  M 133.68 74.72
  C 134.13 75.71 140.82 69.25 141.57 68.57"
/>
<path stroke="#6bd273" vector-effect="non-scaling-stroke" d="
  M 141.57 68.57
  L 145.88 65.37"
/>
<path stroke="#5dcf65" vector-effect="non-scaling-stroke" d="
  M 145.88 65.37
  Q 165.16 50.62 187.29 40.54"
/>
<path stroke="#4bc853" vector-effect="non-scaling-stroke" d="
  M 187.29 40.54
  L 190.09 39.17"
/>
<path stroke="#5dcf65" vector-effect="non-scaling-stroke" d="
  M 190.09 39.17
  Q 205.67 32.53 221.77 27.83"
/>
<path stroke="#4bc853" vector-effect="non-scaling-stroke" d="
  M 221.77 27.83
  Q 245.38 21.60 269.81 20.08"
/>
<path stroke="#71d478" vector-effect="non-scaling-stroke" d="
  M 26.71 429.00
  L 10.27 523.97
  Q 10.20 524.41 9.89 524.73
  L 8.95 525.75"
/>
<path stroke="#71d478" vector-effect="non-scaling-stroke" d="
  M 70.70 665.01
  L 33.38 710.29
  A 0.96 0.96 0.0 0 1 31.69 709.86
  Q 31.21 707.43 29.17 707.28"
/>
<path stroke="#84db8a" vector-effect="non-scaling-stroke" d="
  M 25.32 699.07
  L 18.04 680.48
  A 0.65 0.60 -82.8 0 0 17.86 680.23
  Q 17.13 679.67 17.24 680.49"
/>
<path stroke="#84db8a" vector-effect="non-scaling-stroke" d="
  M 15.88 677.30
  Q 16.62 676.95 16.19 675.52
  Q 9.79 654.48 5.79 634.81"
/>
<path stroke="#84db8a" vector-effect="non-scaling-stroke" d="
  M 3.26 611.61
  Q 3.85 604.13 3.91 591.00
  Q 3.94 584.96 3.27 581.19"
/>
<path stroke="#9ee2a2" vector-effect="non-scaling-stroke" d="
  M 190.09 39.17
  Q 190.03 38.84 189.68 38.62"
/>
<path stroke="#beecc2" vector-effect="non-scaling-stroke" d="
  M 108.60 101.55
  L 108.12 100.93"
/>
<path stroke="#9ee2a2" vector-effect="non-scaling-stroke" d="
  M 55.73 234.26
  Q 55.28 233.91 54.77 234.00"
/>
<path stroke="#98b598" vector-effect="non-scaling-stroke" d="
  M 806.39 274.71
  L 807.26 389.69
  Q 807.26 389.94 807.17 390.18
  Q 807.11 390.34 807.11 390.50
  C 806.92 441.34 806.53 492.37 807.89 543.19
  C 808.82 577.77 808.38 612.10 803.82 646.12"
/>
<path stroke="#a6b9a5" vector-effect="non-scaling-stroke" d="
  M 803.82 646.12
  C 785.14 737.36 707.19 818.26 610.50 819.99
  Q 594.51 820.27 532.44 819.93
  Q 451.50 819.49 370.57 820.24
  C 317.39 820.73 276.84 824.23 229.81 817.00"
/>
<path stroke="#85af86" vector-effect="non-scaling-stroke" d="
  M 229.81 817.00
  Q 221.59 814.54 213.56 812.07
  C 140.38 789.55 93.21 737.03 70.70 665.01"
/>
<path stroke="#6ba86d" vector-effect="non-scaling-stroke" d="
  M 70.70 665.01
  Q 65.72 636.06 63.62 605.71
  C 63.29 600.87 61.61 594.90 61.48 591.00
  Q 60.56 563.85 61.05 514.29
  Q 61.11 508.50 61.77 502.62
  C 62.42 496.84 63.66 491.03 63.11 485.18
  C 61.70 470.28 60.91 456.25 61.16 440.50
  Q 61.46 420.75 61.18 400.94"
/>
<path stroke="#beecc2" vector-effect="non-scaling-stroke" d="
  M 145.88 65.37
  L 145.68 64.72"
/>
<path stroke="#71d478" vector-effect="non-scaling-stroke" d="
  M 432.57 36.65
  Q 445.42 39.87 458.61 41.35
  Q 459.09 41.41 459.37 41.01
  Q 459.50 40.83 459.49 40.64"
/>
<path stroke="#71d478" vector-effect="non-scaling-stroke" d="
  M 547.81 54.40
  L 547.75 54.77
  Q 547.68 55.28 548.19 55.36
  L 564.26 57.86
  Q 564.56 57.90 564.85 57.80
  L 566.28 57.25"
/>
<path stroke="#71d478" vector-effect="non-scaling-stroke" d="
  M 614.16 64.65
  Q 615.46 65.76 617.91 66.19
  Q 618.53 66.30 618.43 66.91
  Q 617.37 73.57 614.02 79.21"
/>
<path stroke="#6ba86d" vector-effect="non-scaling-stroke" d="
  M 614.02 79.21
  Q 608.24 78.99 602.50 78.97
  C 516.85 78.70 431.19 78.58 345.56 78.43"
/>
<path stroke="#9ee2a2" vector-effect="non-scaling-stroke" d="
  M 221.77 27.83
  L 221.40 27.07"
/>
<path stroke="#9ee2a2" vector-effect="non-scaling-stroke" d="
  M 187.29 40.54
  Q 187.21 40.23 187.26 40.05"
/>
<path stroke="#beecc2" vector-effect="non-scaling-stroke" d="
  M 141.57 68.57
  Q 141.48 68.23 141.20 68.20"
/>
<path stroke="#ace5b0" vector-effect="non-scaling-stroke" d="
  M 225.99 832.01
  L 226.90 830.16
  Q 227.13 829.69 227.04 829.18
  C 226.22 823.99 225.71 820.39 229.81 817.00"
/>
<path stroke="#9ee2a2" vector-effect="non-scaling-stroke" d="
  M 807.66 145.44
  Q 808.37 148.20 811.26 150.66
  Q 811.62 150.97 812.07 150.83
  L 812.68 150.64"
/>
<path stroke="#9ee2a2" vector-effect="non-scaling-stroke" d="
  M 857.32 230.25
  Q 857.06 230.55 856.95 230.99
  A 1.06 1.04 -4.1 0 1 856.31 231.71
  C 845.37 235.84 837.34 239.19 830.37 249.10
  C 828.45 251.83 827.04 255.14 824.12 256.92
  C 815.90 261.92 810.37 265.53 806.39 274.71"
/>
<path stroke="#85af86" vector-effect="non-scaling-stroke" d="
  M 806.39 274.71
  C 794.59 167.79 720.21 94.18 614.02 79.21"
/>
<path stroke="#beecc2" vector-effect="non-scaling-stroke" d="
  M 817.57 645.51
  Q 810.54 644.22 803.82 646.12"
/>
<path stroke="#bfc1bd" vector-effect="non-scaling-stroke" d="
  M 563.69 504.12
  A 3.63 3.62 77.2 0 1 567.92 506.79
  C 574.28 532.05 581.29 560.93 591.31 582.69
  C 607.97 618.91 651.68 643.10 691.01 630.74
  C 720.58 621.45 736.99 595.50 737.76 565.25
  Q 738.10 551.65 736.88 534.18
  Q 731.67 459.67 712.49 387.50
  Q 702.30 349.14 687.95 315.65
  C 678.02 292.47 663.51 266.91 638.23 258.93
  C 624.82 254.69 607.75 255.48 593.18 257.41
  Q 573.04 260.09 561.53 261.78
  C 547.41 263.84 538.04 261.73 523.09 257.60
  Q 513.66 255.00 506.25 255.00
  Q 429.96 254.99 353.68 255.01
  C 336.20 255.01 321.38 266.43 303.65 262.24
  Q 268.15 253.86 232.01 258.21
  C 218.88 259.79 208.65 263.86 199.78 272.80
  C 183.47 289.22 172.44 312.77 164.71 334.74
  C 146.85 385.50 137.14 440.48 131.09 493.81
  C 128.89 513.14 126.89 532.01 125.85 551.25
  C 123.56 593.53 149.12 639.49 197.58 634.12
  C 266.42 626.48 279.20 562.12 295.54 507.56
  C 296.84 503.25 299.85 503.15 303.70 504.51
  C 316.95 509.19 328.08 511.85 342.21 508.86
  C 355.55 506.04 372.29 500.14 384.25 499.97
  C 405.23 499.67 426.23 499.55 447.21 498.94
  C 470.81 498.25 492.32 503.48 515.15 508.41
  Q 524.92 510.52 530.50 510.48
  C 541.66 510.40 552.99 506.27 563.69 504.12"
/>
<path stroke="#bfc1bd" vector-effect="non-scaling-stroke" d="
  M 521.6054 269.7677
  A 4.71 4.71 0.0 0 0 516.9119 265.0413
  L 344.4530 264.4393
  A 4.71 4.71 0.0 0 0 339.7266 269.1328
  L 339.4146 358.5123
  A 4.71 4.71 0.0 0 0 344.1081 363.2387
  L 516.5670 363.8407
  A 4.71 4.71 0.0 0 0 521.2934 359.1472
  L 521.6054 269.7677"
/>
<path stroke="#bfc1bd" vector-effect="non-scaling-stroke" d="
  M 228.29 282.91
  C 251.82 280.49 273.64 284.19 293.92 294.84
  A 2.76 2.76 0.0 0 0 297.43 294.04
  C 302.67 286.95 295.14 280.72 289.07 278.18
  C 269.90 270.17 244.60 270.04 224.05 275.62
  Q 216.22 277.75 211.69 283.79
  A 0.84 0.84 0.0 0 0 212.44 285.13
  C 217.87 284.62 223.84 283.36 228.29 282.91"
/>
<path stroke="#bfc1bd" vector-effect="non-scaling-stroke" d="
  M 581.90 290.97
  C 602.09 279.43 625.13 278.15 647.18 284.78
  A 1.01 1.01 0.0 0 0 648.42 283.49
  C 642.16 265.21 587.17 275.61 573.43 278.65
  C 570.03 279.40 559.42 281.63 558.39 284.00
  C 557.37 286.32 563.44 296.95 564.62 299.11
  A 2.43 2.42 57.6 0 0 568.19 299.91
  Q 574.92 294.97 581.90 290.97"
/>
<path stroke="#bfc1bd" vector-effect="non-scaling-stroke" d="
  M 310.2601 311.5910
  A 12.09 5.28 97.7 0 0 317.1124 300.3174
  A 12.09 5.28 97.7 0 0 313.4999 287.6290
  A 12.09 5.28 97.7 0 0 306.6476 298.9026
  A 12.09 5.28 97.7 0 0 310.2601 311.5910"
/>
<path stroke="#bfc1bd" vector-effect="non-scaling-stroke" d="
  M 546.44 306.81
  C 551.22 311.35 555.25 305.17 553.68 300.57
  Q 551.96 295.52 551.74 292.52
  C 551.35 287.16 545.82 287.00 543.79 291.42
  Q 539.68 300.40 546.44 306.81"
/>
<path stroke="#bfc1bd" vector-effect="non-scaling-stroke" d="
  M 294.56 310.19
  C 286.76 303.21 277.57 299.10 267.57 295.44
  C 254.84 290.78 243.54 289.07 230.22 292.05
  C 198.05 299.26 185.79 323.70 176.76 353.29
  C 173.66 363.45 174.41 376.84 177.58 386.77
  C 185.15 410.50 202.02 422.59 225.00 430.80
  Q 254.19 441.22 280.02 425.54
  C 293.23 417.53 300.25 406.99 306.64 392.33
  C 312.00 380.05 315.92 369.56 316.03 358.51
  Q 316.32 329.67 294.56 310.19"
/>
<path stroke="#bfc1bd" vector-effect="non-scaling-stroke" d="
  M 633.7126 432.0204
  A 71.67 69.31 76.4 0 0 684.2266 346.0623
  A 71.67 69.31 76.4 0 0 600.0074 292.6996
  A 71.67 69.31 76.4 0 0 549.4934 378.6577
  A 71.67 69.31 76.4 0 0 633.7126 432.0204"
/>
<path stroke="#bfc1bd" vector-effect="non-scaling-stroke" d="
  M 326.88 378.90
  C 331.02 381.57 334.55 377.37 337.49 377.93
  C 370.55 384.15 394.68 402.79 400.01 437.22
  C 401.21 444.97 400.80 453.01 400.76 460.91
  C 400.75 464.16 400.24 466.35 404.46 466.66
  Q 426.85 468.29 449.31 469.03
  C 459.60 469.37 461.22 464.60 461.32 455.05
  Q 461.39 448.16 462.53 438.02
  C 466.43 403.52 489.84 384.42 522.83 379.65
  Q 528.61 378.82 534.45 377.98
  C 537.33 377.56 538.82 376.65 538.30 373.50
  C 535.14 354.37 539.39 339.91 547.22 322.77
  Q 547.45 322.27 547.23 321.77
  C 545.78 318.44 536.30 314.47 533.41 313.37
  Q 531.19 312.53 531.03 314.90
  C 530.08 329.05 530.04 342.90 528.98 356.76
  C 527.77 372.69 522.46 376.68 506.78 376.71
  Q 427.48 376.84 348.19 376.68
  C 331.79 376.65 330.22 366.50 330.27 352.58
  Q 330.33 334.66 329.99 316.76
  C 329.79 306.71 316.67 318.97 314.62 321.01
  A 2.96 2.96 0.0 0 0 314.17 324.65
  Q 326.95 345.83 323.40 370.98
  Q 322.66 376.19 326.88 378.90"
/>
<path stroke="#bfc1bd" vector-effect="non-scaling-stroke" d="
  M 147.19 559.81
  Q 189.34 585.20 239.88 580.85
  C 246.09 580.31 250.48 580.23 252.57 574.31
  Q 267.07 533.11 281.77 491.97
  C 282.60 489.64 283.32 485.23 282.26 483.53
  C 274.49 471.10 270.04 459.26 270.68 444.31
  Q 270.78 442.01 269.96 440.03
  Q 269.75 439.52 269.19 439.51
  C 266.79 439.47 264.53 439.42 262.09 439.86
  C 227.79 446.11 196.70 436.78 176.56 407.45
  C 173.59 403.13 168.79 394.98 166.08 395.02
  Q 165.57 395.03 165.26 395.43
  Q 163.90 397.18 163.69 398.49
  C 156.00 447.11 149.52 495.98 142.34 544.68
  C 141.41 550.98 141.71 556.51 147.19 559.81"
/>
<path stroke="#bfc1bd" vector-effect="non-scaling-stroke" d="
  M 607.32 567.60
  C 608.79 571.65 610.12 577.61 615.23 578.36
  Q 665.42 585.75 709.67 561.92
  C 717.20 557.87 718.60 557.17 717.93 548.74
  Q 711.85 472.70 695.62 398.16
  C 695.39 397.10 695.48 395.30 693.76 395.53
  A 1.39 1.39 0.0 0 0 692.72 396.24
  C 679.12 421.23 661.50 437.46 631.74 439.50
  Q 622.37 440.14 593.45 441.46
  Q 592.90 441.49 592.80 442.04
  Q 592.33 444.59 592.26 447.75
  C 591.91 462.59 586.56 472.95 578.27 484.93
  A 1.22 1.21 56.1 0 0 578.08 485.92
  Q 578.92 489.46 580.95 495.02
  Q 594.15 531.31 607.32 567.60"
/>
<path stroke="#bfc1bd" vector-effect="non-scaling-stroke" d="
  M 383.18 445.30
  A 47.31 47.31 0.0 0 0 335.87 397.99
  A 47.31 47.31 0.0 0 0 288.56 445.30
  A 47.31 47.31 0.0 0 0 335.87 492.61
  A 47.31 47.31 0.0 0 0 383.18 445.30"
/>
<path stroke="#bfc1bd" vector-effect="non-scaling-stroke" d="
  M 573.49 445.38
  A 47.42 47.42 0.0 0 0 526.07 397.96
  A 47.42 47.42 0.0 0 0 478.65 445.38
  A 47.42 47.42 0.0 0 0 526.07 492.80
  A 47.42 47.42 0.0 0 0 573.49 445.38"
/>
<path stroke="#bfc1bd" vector-effect="non-scaling-stroke" d="
  M 467.3864 479.7538
  A 1.85 1.85 0.0 0 0 465.4918 477.9495
  L 391.7338 479.7521
  A 1.85 1.85 0.0 0 0 389.9296 481.6468
  L 389.9736 483.4462
  A 1.85 1.85 0.0 0 0 391.8682 485.2505
  L 465.6262 483.4479
  A 1.85 1.85 0.0 0 0 467.4304 481.5532
  L 467.3864 479.7538"
/>
<path stroke="#bfc1bd" vector-effect="non-scaling-stroke" d="
  M 145.16 575.28
  C 155.56 625.04 211.74 629.98 240.59 593.25
  A 1.21 1.20 20.7 0 0 239.71 591.31
  C 214.72 589.77 191.84 588.59 167.30 579.93
  C 161.52 577.89 154.83 574.83 148.61 572.32
  A 2.63 2.63 0.0 0 0 145.34 573.46
  Q 144.93 574.18 145.16 575.28"
/>
<path stroke="#bfc1bd" vector-effect="non-scaling-stroke" d="
  M 627.69 601.31
  C 642.11 611.72 660.65 619.61 678.26 616.28
  C 696.19 612.89 709.50 597.68 714.07 580.32
  Q 715.08 576.52 715.06 574.12
  Q 715.06 573.44 714.40 573.60
  Q 711.31 574.35 708.42 575.64
  Q 670.08 592.71 628.00 590.91
  Q 624.24 590.75 623.59 593.76
  C 622.88 596.99 625.19 599.51 627.69 601.31"
/>
<path stroke="#bfc1bd" vector-effect="non-scaling-stroke" d="
  M 254.55 317.75
  L 234.26 317.01
  A 6.32 6.32 0.0 0 0 227.72 323.09
  L 227.48 329.44
  A 21.53 15.95 -87.9 0 0 242.63 351.54
  L 243.67 351.58
  A 21.53 15.95 -87.9 0 0 260.40 330.65
  L 260.63 324.30
  A 6.32 6.32 0.0 0 0 254.55 317.75"
/>
<path stroke="#bfc1bd" vector-effect="non-scaling-stroke" d="
  M 190.97 364.04
  C 196.49 374.66 206.98 380.67 218.77 377.94
  C 227.38 375.94 234.08 370.38 233.49 360.96
  C 233.01 353.48 228.56 350.38 221.73 348.78
  Q 203.96 344.61 192.44 356.24
  C 189.94 358.77 189.33 360.87 190.97 364.04"
/>
<path stroke="#bfc1bd" vector-effect="non-scaling-stroke" d="
  M 259.19 372.31
  Q 268.93 380.79 281.76 378.24
  Q 289.21 376.75 289.19 369.48
  C 289.18 366.92 287.57 364.16 287.55 361.08
  A 1.56 1.55 63.2 0 1 287.85 360.16
  C 289.45 358.04 293.19 353.85 289.27 351.70
  C 280.48 346.89 262.29 344.58 255.80 354.39
  C 251.93 360.24 253.94 367.75 259.19 372.31"
/>
<path stroke="#bfc1bd" vector-effect="non-scaling-stroke" d="
  M 297.7571 369.0984
  A 7.00 4.37 93.3 0 0 302.5228 362.3616
  A 7.00 4.37 93.3 0 0 298.5629 355.1216
  A 7.00 4.37 93.3 0 0 293.7972 361.8584
  A 7.00 4.37 93.3 0 0 297.7571 369.0984"
/>
<path stroke="#bfc1bd" vector-effect="non-scaling-stroke" d="
  M 244.55 423.89
  C 249.50 424.83 250.14 419.53 247.15 416.73
  C 246.26 415.90 245.95 414.91 245.55 413.82
  Q 245.36 413.32 245.66 412.87
  Q 246.53 411.55 248.25 410.74
  C 261.45 404.52 263.68 393.80 257.81 381.19
  C 253.63 372.20 242.36 368.89 234.70 375.68
  Q 227.56 382.01 226.04 392.57
  C 225.15 398.72 227.52 401.17 231.58 406.81
  Q 237.51 415.04 243.51 423.23
  A 1.71 1.70 -12.3 0 0 244.55 423.89"
/>
<path stroke="#bfc1bd" vector-effect="non-scaling-stroke" d="
  M 642.62 321.39
  A 23.70 23.70 0.0 0 0 618.92 297.69
  A 23.70 23.70 0.0 0 0 595.22 321.39
  A 23.70 23.70 0.0 0 0 618.92 345.09
  A 23.70 23.70 0.0 0 0 642.62 321.39"
/>
<path stroke="#bfc1bd" vector-effect="non-scaling-stroke" d="
  M 603.01 362.12
  A 24.00 24.00 0.0 0 0 579.01 338.12
  A 24.00 24.00 0.0 0 0 555.01 362.12
  A 24.00 24.00 0.0 0 0 579.01 386.12
  A 24.00 24.00 0.0 0 0 603.01 362.12"
/>
<path stroke="#bfc1bd" vector-effect="non-scaling-stroke" d="
  M 682.03 362.28
  A 23.02 23.02 0.0 0 0 659.01 339.26
  A 23.02 23.02 0.0 0 0 635.99 362.28
  A 23.02 23.02 0.0 0 0 659.01 385.30
  A 23.02 23.02 0.0 0 0 682.03 362.28"
/>
<path stroke="#bfc1bd" vector-effect="non-scaling-stroke" d="
  M 643.08 402.45
  A 23.72 23.72 0.0 0 0 619.36 378.73
  A 23.72 23.72 0.0 0 0 595.64 402.45
  A 23.72 23.72 0.0 0 0 619.36 426.17
  A 23.72 23.72 0.0 0 0 643.08 402.45"
/>
<path stroke="#bfc1bd" vector-effect="non-scaling-stroke" d="
  M 409.28 399.09
  C 415.55 407.76 426.97 409.89 436.61 406.07
  Q 439.31 405.00 441.13 404.89
  Q 443.21 404.77 442.67 406.77
  Q 441.11 412.53 436.45 415.57
  C 433.30 417.63 427.80 415.18 424.94 416.66
  C 416.60 420.98 406.78 429.68 405.55 439.07
  C 402.32 463.90 457.18 474.45 456.52 444.50
  C 456.43 440.15 455.92 435.51 454.01 431.65
  C 451.99 427.56 447.15 423.63 443.71 419.79
  A 2.29 2.29 0.0 0 1 443.83 416.61
  C 445.81 414.72 458.38 397.52 449.70 397.34
  Q 432.10 396.97 414.50 396.41
  Q 411.97 396.33 410.04 396.88
  A 1.43 1.43 0.0 0 0 409.28 399.09"
/>
<path stroke="#bfc1bd" vector-effect="non-scaling-stroke" d="
  M 250.5580 339.0807
  A 8.55 6.56 35.3 0 0 247.3707 328.7861
  A 8.55 6.56 35.3 0 0 236.6020 329.1993
  A 8.55 6.56 35.3 0 0 239.7893 339.4939
  A 8.55 6.56 35.3 0 0 250.5580 339.0807"
/>
<path stroke="#bfc1bd" vector-effect="non-scaling-stroke" d="
  M 670.12 363.04
  L 671.56 360.11
  A 1.34 1.34 0.0 0 0 670.96 358.32
  L 663.70 354.73
  A 11.81 2.36 26.3 0 0 652.07 351.62
  L 651.53 352.71
  A 11.81 2.36 26.3 0 0 661.07 360.06
  L 668.32 363.64
  A 1.34 1.34 0.0 0 0 670.12 363.04"
/>
<path stroke="#bfc1bd" vector-effect="non-scaling-stroke" d="
  M 224.1508 361.3636
  A 8.78 6.17 -7.7 0 0 214.6233 356.4256
  A 8.78 6.17 -7.7 0 0 206.7492 363.7164
  A 8.78 6.17 -7.7 0 0 216.2767 368.6544
  A 8.78 6.17 -7.7 0 0 224.1508 361.3636"
/>
<path stroke="#bfc1bd" vector-effect="non-scaling-stroke" d="
  M 281.2010 364.4923
  A 9.54 6.35 12.3 0 0 273.2327 356.2558
  A 9.54 6.35 12.3 0 0 262.5590 360.4277
  A 9.54 6.35 12.3 0 0 270.5273 368.6642
  A 9.54 6.35 12.3 0 0 281.2010 364.4923"
/>
<path stroke="#bfc1bd" vector-effect="non-scaling-stroke" d="
  M 250.93 393.16
  L 247.60 384.16
  A 2.85 2.85 0.0 0 0 243.94 382.47
  L 241.90 383.23
  A 7.02 6.80 69.7 0 0 237.96 392.17
  L 238.40 393.35
  A 7.02 6.80 69.7 0 0 247.21 397.58
  L 249.24 396.82
  A 2.85 2.85 0.0 0 0 250.93 393.16"
/>
<path stroke="#bfc1bd" vector-effect="non-scaling-stroke" d="
  M 613.68 396.94
  Q 617.32 393.59 620.81 393.32
  C 636.31 392.11 617.16 382.10 614.40 387.67
  Q 611.44 393.67 607.51 404.19
  C 606.58 406.71 606.98 408.94 609.54 409.97
  Q 621.00 414.61 632.71 409.69
  C 636.93 407.92 633.31 403.64 631.59 401.77
  Q 631.23 401.38 630.87 401.77
  Q 627.36 405.50 623.06 408.32
  C 614.37 414.02 605.52 404.45 613.68 396.94"
/>
<path stroke="#bfc1bd" vector-effect="non-scaling-stroke" d="
  M 445.9852 441.4552
  A 13.95 12.72 1.5 0 0 432.3730 428.3744
  A 13.95 12.72 1.5 0 0 418.0948 440.7248
  A 13.95 12.72 1.5 0 0 431.7070 453.8056
  A 13.95 12.72 1.5 0 0 445.9852 441.4552"
/>
<path stroke="#bfc1bd" vector-effect="non-scaling-stroke" d="
  M 374.85 443.55
  A 39.30 39.30 0.0 0 0 335.55 404.25
  A 39.30 39.30 0.0 0 0 296.25 443.55
  A 39.30 39.30 0.0 0 0 335.55 482.85
  A 39.30 39.30 0.0 0 0 374.85 443.55"
/>
<path stroke="#bfc1bd" vector-effect="non-scaling-stroke" d="
  M 565.61 443.47
  A 39.47 39.47 0.0 0 0 526.14 404.00
  A 39.47 39.47 0.0 0 0 486.67 443.47
  A 39.47 39.47 0.0 0 0 526.14 482.94
  A 39.47 39.47 0.0 0 0 565.61 443.47"
/>
<path stroke="#bfc1bd" vector-effect="non-scaling-stroke" d="
  M 555.17 443.89
  A 28.85 28.85 0.0 0 0 526.32 415.04
  A 28.85 28.85 0.0 0 0 497.47 443.89
  A 28.85 28.85 0.0 0 0 526.32 472.74
  A 28.85 28.85 0.0 0 0 555.17 443.89"
/>
<path stroke="#bfc1bd" vector-effect="non-scaling-stroke" d="
  M 365.03 443.68
  A 28.63 28.63 0.0 0 0 336.40 415.05
  A 28.63 28.63 0.0 0 0 307.77 443.68
  A 28.63 28.63 0.0 0 0 336.40 472.31
  A 28.63 28.63 0.0 0 0 365.03 443.68"
/>
</g>
<path fill="#ffffff" d="
  M 298.29 19.32
  L 298.05 19.57
  Q 297.78 19.84 297.40 19.83
  L 275.59 19.35
  Q 286.68 18.29 297.75 18.82
  Q 298.15 18.84 298.29 19.32
  Z"
/>
<path fill="#0ab516" d="
  M 275.59 19.35
  L 297.40 19.83
  Q 297.78 19.84 298.05 19.57
  L 298.29 19.32
  Q 298.92 19.84 300.98 19.93
  Q 335.31 22.07 369.96 27.84
  Q 371.10 28.03 370.87 29.16
  C 368.82 39.05 363.96 46.33 357.53 54.03
  C 351.99 60.66 348.50 70.27 345.56 78.43
  Q 312.40 76.91 279.32 77.20
  C 177.99 78.10 91.37 138.65 68.61 239.90
  Q 68.56 240.12 68.28 240.29
  A 0.92 0.91 -8.6 0 0 67.84 240.88
  C 64.25 256.87 63.18 266.89 61.19 285.93
  C 60.29 294.51 60.88 303.45 60.20 312.07
  Q 59.72 318.14 59.77 321.95
  C 60.06 348.27 60.75 374.64 61.18 400.94
  L 59.53 418.88
  Q 59.48 419.36 59.00 419.38
  Q 52.53 419.60 46.11 420.51
  C 37.16 421.79 32.63 421.53 28.30 428.49
  Q 27.73 429.40 26.71 429.00
  Q 27.55 421.20 30.71 399.00
  C 36.45 358.70 41.48 325.14 47.09 288.28
  Q 51.21 261.23 55.73 234.26
  Q 57.84 220.08 60.42 206.00
  C 61.50 200.10 63.41 194.23 64.98 188.32
  Q 77.75 140.32 108.60 101.55
  Q 120.21 87.76 133.41 75.40
  Q 133.68 75.15 132.97 74.81
  L 133.68 74.72
  C 134.13 75.71 140.82 69.25 141.57 68.57
  L 145.88 65.37
  Q 165.16 50.62 187.29 40.54
  L 190.09 39.17
  Q 205.67 32.53 221.77 27.83
  Q 245.38 21.60 269.81 20.08
  L 275.59 19.35
  Z"
/>
<path fill="#8bdb90" d="
  M 269.81 20.08
  Q 245.38 21.60 221.77 27.83
  L 221.40 27.07
  Q 239.85 22.06 260.69 19.96
  Q 265.79 19.44 269.81 20.08
  Z"
/>
<path fill="#57cd5f" d="
  M 300.98 19.93
  Q 307.21 19.53 311.50 19.79
  Q 333.32 21.10 357.50 24.75
  Q 395.27 30.46 432.57 36.65
  Q 445.42 39.87 458.61 41.35
  Q 459.09 41.41 459.37 41.01
  Q 459.50 40.83 459.49 40.64
  L 547.81 54.40
  L 547.75 54.77
  Q 547.68 55.28 548.19 55.36
  L 564.26 57.86
  Q 564.56 57.90 564.85 57.80
  L 566.28 57.25
  L 614.16 64.65
  Q 615.46 65.76 617.91 66.19
  Q 618.53 66.30 618.43 66.91
  Q 617.37 73.57 614.02 79.21
  Q 608.24 78.99 602.50 78.97
  C 516.85 78.70 431.19 78.58 345.56 78.43
  C 348.50 70.27 351.99 60.66 357.53 54.03
  C 363.96 46.33 368.82 39.05 370.87 29.16
  Q 371.10 28.03 369.96 27.84
  Q 335.31 22.07 300.98 19.93
  Z"
/>
<path fill="#b0e8b4" d="
  M 221.40 27.07
  L 221.77 27.83
  Q 205.67 32.53 190.09 39.17
  Q 190.03 38.84 189.68 38.62
  C 191.13 37.98 195.50 35.35 196.74 35.50
  Q 197.24 35.56 197.66 35.30
  Q 200.34 33.62 203.41 32.83
  C 209.47 31.27 214.92 28.74 221.40 27.07
  Z"
/>
<path fill="#8bdb90" d="
  M 432.57 36.65
  L 459.49 40.64
  Q 459.50 40.83 459.37 41.01
  Q 459.09 41.41 458.61 41.35
  Q 445.42 39.87 432.57 36.65
  Z"
/>
<path fill="#8bdb90" d="
  M 189.68 38.62
  Q 190.03 38.84 190.09 39.17
  L 187.29 40.54
  Q 187.21 40.23 187.26 40.05
  L 189.68 38.62
  Z"
/>
<path fill="#b0e8b4" d="
  M 187.26 40.05
  Q 187.21 40.23 187.29 40.54
  Q 165.16 50.62 145.88 65.37
  L 145.68 64.72
  C 149.08 61.82 152.30 59.23 156.33 56.78
  Q 159.81 54.66 163.20 52.40
  C 170.17 47.76 177.84 44.03 185.30 40.23
  C 185.97 39.89 186.55 39.97 187.26 40.05
  Z"
/>
<path fill="#8bdb90" d="
  M 547.81 54.40
  L 566.28 57.25
  L 564.85 57.80
  Q 564.56 57.90 564.26 57.86
  L 548.19 55.36
  Q 547.68 55.28 547.75 54.77
  L 547.81 54.40
  Z"
/>
<path fill="#8bdb90" d="
  M 614.16 64.65
  C 633.94 67.32 653.48 70.25 672.99 74.56
  C 723.73 85.79 771.90 106.73 807.66 145.44
  Q 808.37 148.20 811.26 150.66
  Q 811.62 150.97 812.07 150.83
  L 812.68 150.64
  Q 842.37 186.02 857.32 230.25
  Q 857.06 230.55 856.95 230.99
  A 1.06 1.04 -4.1 0 1 856.31 231.71
  C 845.37 235.84 837.34 239.19 830.37 249.10
  C 828.45 251.83 827.04 255.14 824.12 256.92
  C 815.90 261.92 810.37 265.53 806.39 274.71
  C 794.59 167.79 720.21 94.18 614.02 79.21
  Q 617.37 73.57 618.43 66.91
  Q 618.53 66.30 617.91 66.19
  Q 615.46 65.76 614.16 64.65
  Z"
/>
<path fill="#ccefcf" d="
  M 145.68 64.72
  L 145.88 65.37
  L 141.57 68.57
  Q 141.48 68.23 141.20 68.20
  C 142.60 66.91 144.21 64.54 145.68 64.72
  Z"
/>
<path fill="#b0e8b4" d="
  M 141.20 68.20
  Q 141.48 68.23 141.57 68.57
  C 140.82 69.25 134.13 75.71 133.68 74.72
  C 135.09 73.29 139.40 68.10 141.20 68.20
  Z"
/>
<path fill="#ccefcf" d="
  M 132.97 74.81
  Q 133.68 75.15 133.41 75.40
  Q 120.21 87.76 108.60 101.55
  L 108.12 100.93
  L 114.23 94.20
  A 2.55 2.42 -15.4 0 0 114.70 93.42
  C 114.93 92.83 115.08 92.07 115.51 91.63
  Q 123.86 83.23 132.26 74.89
  Q 132.45 74.70 132.71 74.75
  Q 132.86 74.79 132.97 74.81
  Z"
/>
<path fill="#7f827b" d="
  M 345.56 78.43
  C 431.19 78.58 516.85 78.70 602.50 78.97
  Q 608.24 78.99 614.02 79.21
  C 720.21 94.18 794.59 167.79 806.39 274.71
  L 807.26 389.69
  Q 807.26 389.94 807.17 390.18
  Q 807.11 390.34 807.11 390.50
  C 806.92 441.34 806.53 492.37 807.89 543.19
  C 808.82 577.77 808.38 612.10 803.82 646.12
  C 785.14 737.36 707.19 818.26 610.50 819.99
  Q 594.51 820.27 532.44 819.93
  Q 451.50 819.49 370.57 820.24
  C 317.39 820.73 276.84 824.23 229.81 817.00
  Q 221.59 814.54 213.56 812.07
  C 140.38 789.55 93.21 737.03 70.70 665.01
  Q 65.72 636.06 63.62 605.71
  C 63.29 600.87 61.61 594.90 61.48 591.00
  Q 60.56 563.85 61.05 514.29
  Q 61.11 508.50 61.77 502.62
  C 62.42 496.84 63.66 491.03 63.11 485.18
  C 61.70 470.28 60.91 456.25 61.16 440.50
  Q 61.46 420.75 61.18 400.94
  C 60.75 374.64 60.06 348.27 59.77 321.95
  Q 59.72 318.14 60.20 312.07
  C 60.88 303.45 60.29 294.51 61.19 285.93
  C 63.18 266.89 64.25 256.87 67.84 240.88
  A 0.92 0.91 -8.6 0 1 68.28 240.29
  Q 68.56 240.12 68.61 239.90
  C 91.37 138.65 177.99 78.10 279.32 77.20
  Q 312.40 76.91 345.56 78.43
  Z
  M 563.69 504.12
  A 3.63 3.62 77.2 0 1 567.92 506.79
  C 574.28 532.05 581.29 560.93 591.31 582.69
  C 607.97 618.91 651.68 643.10 691.01 630.74
  C 720.58 621.45 736.99 595.50 737.76 565.25
  Q 738.10 551.65 736.88 534.18
  Q 731.67 459.67 712.49 387.50
  Q 702.30 349.14 687.95 315.65
  C 678.02 292.47 663.51 266.91 638.23 258.93
  C 624.82 254.69 607.75 255.48 593.18 257.41
  Q 573.04 260.09 561.53 261.78
  C 547.41 263.84 538.04 261.73 523.09 257.60
  Q 513.66 255.00 506.25 255.00
  Q 429.96 254.99 353.68 255.01
  C 336.20 255.01 321.38 266.43 303.65 262.24
  Q 268.15 253.86 232.01 258.21
  C 218.88 259.79 208.65 263.86 199.78 272.80
  C 183.47 289.22 172.44 312.77 164.71 334.74
  C 146.85 385.50 137.14 440.48 131.09 493.81
  C 128.89 513.14 126.89 532.01 125.85 551.25
  C 123.56 593.53 149.12 639.49 197.58 634.12
  C 266.42 626.48 279.20 562.12 295.54 507.56
  C 296.84 503.25 299.85 503.15 303.70 504.51
  C 316.95 509.19 328.08 511.85 342.21 508.86
  C 355.55 506.04 372.29 500.14 384.25 499.97
  C 405.23 499.67 426.23 499.55 447.21 498.94
  C 470.81 498.25 492.32 503.48 515.15 508.41
  Q 524.92 510.52 530.50 510.48
  C 541.66 510.40 552.99 506.27 563.69 504.12
  Z"
/>
<path fill="#b0e8b4" d="
  M 108.12 100.93
  L 108.60 101.55
  Q 77.75 140.32 64.98 188.32
  C 63.41 194.23 61.50 200.10 60.42 206.00
  Q 57.84 220.08 55.73 234.26
  Q 55.28 233.91 54.77 234.00
  C 60.81 185.96 76.72 138.53 108.12 100.93
  Z"
/>
<path fill="#b0e8b4" d="
  M 807.66 145.44
  L 812.68 150.64
  L 812.07 150.83
  Q 811.62 150.97 811.26 150.66
  Q 808.37 148.20 807.66 145.44
  Z"
/>
<path fill="#b0e8b4" d="
  M 857.32 230.25
  C 869.28 268.18 867.41 309.49 862.44 348.37
  C 852.23 428.24 840.94 493.65 828.30 566.06
  Q 824.60 587.24 817.57 645.51
  Q 810.54 644.22 803.82 646.12
  C 808.38 612.10 808.82 577.77 807.89 543.19
  C 806.53 492.37 806.92 441.34 807.11 390.50
  Q 807.11 390.34 807.17 390.18
  Q 807.26 389.94 807.26 389.69
  L 806.39 274.71
  C 810.37 265.53 815.90 261.92 824.12 256.92
  C 827.04 255.14 828.45 251.83 830.37 249.10
  C 837.34 239.19 845.37 235.84 856.31 231.71
  A 1.06 1.04 -4.1 0 0 856.95 230.99
  Q 857.06 230.55 857.32 230.25
  Z"
/>
<path fill="#8bdb90" d="
  M 54.77 234.00
  Q 55.28 233.91 55.73 234.26
  Q 51.21 261.23 47.09 288.28
  C 41.48 325.14 36.45 358.70 30.71 399.00
  Q 27.55 421.20 26.71 429.00
  L 10.27 523.97
  Q 10.20 524.41 9.89 524.73
  L 8.95 525.75
  C 15.38 486.28 22.69 448.45 26.00 425.00
  Q 39.50 329.36 54.77 234.00
  Z"
/>
<path fill="#ffffff" d="
  M 563.69 504.12
  C 552.99 506.27 541.66 510.40 530.50 510.48
  Q 524.92 510.52 515.15 508.41
  C 492.32 503.48 470.81 498.25 447.21 498.94
  C 426.23 499.55 405.23 499.67 384.25 499.97
  C 372.29 500.14 355.55 506.04 342.21 508.86
  C 328.08 511.85 316.95 509.19 303.70 504.51
  C 299.85 503.15 296.84 503.25 295.54 507.56
  C 279.20 562.12 266.42 626.48 197.58 634.12
  C 149.12 639.49 123.56 593.53 125.85 551.25
  C 126.89 532.01 128.89 513.14 131.09 493.81
  C 137.14 440.48 146.85 385.50 164.71 334.74
  C 172.44 312.77 183.47 289.22 199.78 272.80
  C 208.65 263.86 218.88 259.79 232.01 258.21
  Q 268.15 253.86 303.65 262.24
  C 321.38 266.43 336.20 255.01 353.68 255.01
  Q 429.96 254.99 506.25 255.00
  Q 513.66 255.00 523.09 257.60
  C 538.04 261.73 547.41 263.84 561.53 261.78
  Q 573.04 260.09 593.18 257.41
  C 607.75 255.48 624.82 254.69 638.23 258.93
  C 663.51 266.91 678.02 292.47 687.95 315.65
  Q 702.30 349.14 712.49 387.50
  Q 731.67 459.67 736.88 534.18
  Q 738.10 551.65 737.76 565.25
  C 736.99 595.50 720.58 621.45 691.01 630.74
  C 651.68 643.10 607.97 618.91 591.31 582.69
  C 581.29 560.93 574.28 532.05 567.92 506.79
  A 3.63 3.62 77.2 0 0 563.69 504.12
  Z
  M 521.6054 269.7677
  A 4.71 4.71 0.0 0 0 516.9119 265.0413
  L 344.4530 264.4393
  A 4.71 4.71 0.0 0 0 339.7266 269.1328
  L 339.4146 358.5123
  A 4.71 4.71 0.0 0 0 344.1081 363.2387
  L 516.5670 363.8407
  A 4.71 4.71 0.0 0 0 521.2934 359.1472
  L 521.6054 269.7677
  Z
  M 228.29 282.91
  C 251.82 280.49 273.64 284.19 293.92 294.84
  A 2.76 2.76 0.0 0 0 297.43 294.04
  C 302.67 286.95 295.14 280.72 289.07 278.18
  C 269.90 270.17 244.60 270.04 224.05 275.62
  Q 216.22 277.75 211.69 283.79
  A 0.84 0.84 0.0 0 0 212.44 285.13
  C 217.87 284.62 223.84 283.36 228.29 282.91
  Z
  M 581.90 290.97
  C 602.09 279.43 625.13 278.15 647.18 284.78
  A 1.01 1.01 0.0 0 0 648.42 283.49
  C 642.16 265.21 587.17 275.61 573.43 278.65
  C 570.03 279.40 559.42 281.63 558.39 284.00
  C 557.37 286.32 563.44 296.95 564.62 299.11
  A 2.43 2.42 57.6 0 0 568.19 299.91
  Q 574.92 294.97 581.90 290.97
  Z
  M 310.2601 311.5910
  A 12.09 5.28 97.7 0 0 317.1124 300.3174
  A 12.09 5.28 97.7 0 0 313.4999 287.6290
  A 12.09 5.28 97.7 0 0 306.6476 298.9026
  A 12.09 5.28 97.7 0 0 310.2601 311.5910
  Z
  M 546.44 306.81
  C 551.22 311.35 555.25 305.17 553.68 300.57
  Q 551.96 295.52 551.74 292.52
  C 551.35 287.16 545.82 287.00 543.79 291.42
  Q 539.68 300.40 546.44 306.81
  Z
  M 294.56 310.19
  C 286.76 303.21 277.57 299.10 267.57 295.44
  C 254.84 290.78 243.54 289.07 230.22 292.05
  C 198.05 299.26 185.79 323.70 176.76 353.29
  C 173.66 363.45 174.41 376.84 177.58 386.77
  C 185.15 410.50 202.02 422.59 225.00 430.80
  Q 254.19 441.22 280.02 425.54
  C 293.23 417.53 300.25 406.99 306.64 392.33
  C 312.00 380.05 315.92 369.56 316.03 358.51
  Q 316.32 329.67 294.56 310.19
  Z
  M 633.7126 432.0204
  A 71.67 69.31 76.4 0 0 684.2266 346.0623
  A 71.67 69.31 76.4 0 0 600.0074 292.6996
  A 71.67 69.31 76.4 0 0 549.4934 378.6577
  A 71.67 69.31 76.4 0 0 633.7126 432.0204
  Z
  M 326.88 378.90
  C 331.02 381.57 334.55 377.37 337.49 377.93
  C 370.55 384.15 394.68 402.79 400.01 437.22
  C 401.21 444.97 400.80 453.01 400.76 460.91
  C 400.75 464.16 400.24 466.35 404.46 466.66
  Q 426.85 468.29 449.31 469.03
  C 459.60 469.37 461.22 464.60 461.32 455.05
  Q 461.39 448.16 462.53 438.02
  C 466.43 403.52 489.84 384.42 522.83 379.65
  Q 528.61 378.82 534.45 377.98
  C 537.33 377.56 538.82 376.65 538.30 373.50
  C 535.14 354.37 539.39 339.91 547.22 322.77
  Q 547.45 322.27 547.23 321.77
  C 545.78 318.44 536.30 314.47 533.41 313.37
  Q 531.19 312.53 531.03 314.90
  C 530.08 329.05 530.04 342.90 528.98 356.76
  C 527.77 372.69 522.46 376.68 506.78 376.71
  Q 427.48 376.84 348.19 376.68
  C 331.79 376.65 330.22 366.50 330.27 352.58
  Q 330.33 334.66 329.99 316.76
  C 329.79 306.71 316.67 318.97 314.62 321.01
  A 2.96 2.96 0.0 0 0 314.17 324.65
  Q 326.95 345.83 323.40 370.98
  Q 322.66 376.19 326.88 378.90
  Z
  M 147.19 559.81
  Q 189.34 585.20 239.88 580.85
  C 246.09 580.31 250.48 580.23 252.57 574.31
  Q 267.07 533.11 281.77 491.97
  C 282.60 489.64 283.32 485.23 282.26 483.53
  C 274.49 471.10 270.04 459.26 270.68 444.31
  Q 270.78 442.01 269.96 440.03
  Q 269.75 439.52 269.19 439.51
  C 266.79 439.47 264.53 439.42 262.09 439.86
  C 227.79 446.11 196.70 436.78 176.56 407.45
  C 173.59 403.13 168.79 394.98 166.08 395.02
  Q 165.57 395.03 165.26 395.43
  Q 163.90 397.18 163.69 398.49
  C 156.00 447.11 149.52 495.98 142.34 544.68
  C 141.41 550.98 141.71 556.51 147.19 559.81
  Z
  M 607.32 567.60
  C 608.79 571.65 610.12 577.61 615.23 578.36
  Q 665.42 585.75 709.67 561.92
  C 717.20 557.87 718.60 557.17 717.93 548.74
  Q 711.85 472.70 695.62 398.16
  C 695.39 397.10 695.48 395.30 693.76 395.53
  A 1.39 1.39 0.0 0 0 692.72 396.24
  C 679.12 421.23 661.50 437.46 631.74 439.50
  Q 622.37 440.14 593.45 441.46
  Q 592.90 441.49 592.80 442.04
  Q 592.33 444.59 592.26 447.75
  C 591.91 462.59 586.56 472.95 578.27 484.93
  A 1.22 1.21 56.1 0 0 578.08 485.92
  Q 578.92 489.46 580.95 495.02
  Q 594.15 531.31 607.32 567.60
  Z
  M 383.18 445.30
  A 47.31 47.31 0.0 0 0 335.87 397.99
  A 47.31 47.31 0.0 0 0 288.56 445.30
  A 47.31 47.31 0.0 0 0 335.87 492.61
  A 47.31 47.31 0.0 0 0 383.18 445.30
  Z
  M 573.49 445.38
  A 47.42 47.42 0.0 0 0 526.07 397.96
  A 47.42 47.42 0.0 0 0 478.65 445.38
  A 47.42 47.42 0.0 0 0 526.07 492.80
  A 47.42 47.42 0.0 0 0 573.49 445.38
  Z
  M 467.3864 479.7538
  A 1.85 1.85 0.0 0 0 465.4918 477.9495
  L 391.7338 479.7521
  A 1.85 1.85 0.0 0 0 389.9296 481.6468
  L 389.9736 483.4462
  A 1.85 1.85 0.0 0 0 391.8682 485.2505
  L 465.6262 483.4479
  A 1.85 1.85 0.0 0 0 467.4304 481.5532
  L 467.3864 479.7538
  Z
  M 145.16 575.28
  C 155.56 625.04 211.74 629.98 240.59 593.25
  A 1.21 1.20 20.7 0 0 239.71 591.31
  C 214.72 589.77 191.84 588.59 167.30 579.93
  C 161.52 577.89 154.83 574.83 148.61 572.32
  A 2.63 2.63 0.0 0 0 145.34 573.46
  Q 144.93 574.18 145.16 575.28
  Z
  M 627.69 601.31
  C 642.11 611.72 660.65 619.61 678.26 616.28
  C 696.19 612.89 709.50 597.68 714.07 580.32
  Q 715.08 576.52 715.06 574.12
  Q 715.06 573.44 714.40 573.60
  Q 711.31 574.35 708.42 575.64
  Q 670.08 592.71 628.00 590.91
  Q 624.24 590.75 623.59 593.76
  C 622.88 596.99 625.19 599.51 627.69 601.31
  Z"
/>
<rect fill="#7f827b" x="-90.94" y="-49.40" transform="translate(430.51,314.14) rotate(0.2)" width="181.88" height="98.80" rx="4.71"/>
<path fill="#7f827b" d="
  M 293.92 294.84
  C 273.64 284.19 251.82 280.49 228.29 282.91
  C 223.84 283.36 217.87 284.62 212.44 285.13
  A 0.84 0.84 0.0 0 1 211.69 283.79
  Q 216.22 277.75 224.05 275.62
  C 244.60 270.04 269.90 270.17 289.07 278.18
  C 295.14 280.72 302.67 286.95 297.43 294.04
  A 2.76 2.76 0.0 0 1 293.92 294.84
  Z"
/>
<path fill="#7f827b" d="
  M 647.18 284.78
  C 625.13 278.15 602.09 279.43 581.90 290.97
  Q 574.92 294.97 568.19 299.91
  A 2.43 2.42 57.6 0 1 564.62 299.11
  C 563.44 296.95 557.37 286.32 558.39 284.00
  C 559.42 281.63 570.03 279.40 573.43 278.65
  C 587.17 275.61 642.16 265.21 648.42 283.49
  A 1.01 1.01 0.0 0 1 647.18 284.78
  Z"
/>
<ellipse fill="#7f827b" cx="0.00" cy="0.00" transform="translate(311.88,299.61) rotate(97.7)" rx="12.09" ry="5.28"/>
<path fill="#7f827b" d="
  M 546.44 306.81
  Q 539.68 300.40 543.79 291.42
  C 545.82 287.00 551.35 287.16 551.74 292.52
  Q 551.96 295.52 553.68 300.57
  C 555.25 305.17 551.22 311.35 546.44 306.81
  Z"
/>
<path fill="#7f827b" d="
  M 294.56 310.19
  Q 316.32 329.67 316.03 358.51
  C 315.92 369.56 312.00 380.05 306.64 392.33
  C 300.25 406.99 293.23 417.53 280.02 425.54
  Q 254.19 441.22 225.00 430.80
  C 202.02 422.59 185.15 410.50 177.58 386.77
  C 174.41 376.84 173.66 363.45 176.76 353.29
  C 185.79 323.70 198.05 299.26 230.22 292.05
  C 243.54 289.07 254.84 290.78 267.57 295.44
  C 277.57 299.10 286.76 303.21 294.56 310.19
  Z
  M 254.55 317.75
  L 234.26 317.01
  A 6.32 6.32 0.0 0 0 227.72 323.09
  L 227.48 329.44
  A 21.53 15.95 -87.9 0 0 242.63 351.54
  L 243.67 351.58
  A 21.53 15.95 -87.9 0 0 260.40 330.65
  L 260.63 324.30
  A 6.32 6.32 0.0 0 0 254.55 317.75
  Z
  M 190.97 364.04
  C 196.49 374.66 206.98 380.67 218.77 377.94
  C 227.38 375.94 234.08 370.38 233.49 360.96
  C 233.01 353.48 228.56 350.38 221.73 348.78
  Q 203.96 344.61 192.44 356.24
  C 189.94 358.77 189.33 360.87 190.97 364.04
  Z
  M 259.19 372.31
  Q 268.93 380.79 281.76 378.24
  Q 289.21 376.75 289.19 369.48
  C 289.18 366.92 287.57 364.16 287.55 361.08
  A 1.56 1.55 63.2 0 1 287.85 360.16
  C 289.45 358.04 293.19 353.85 289.27 351.70
  C 280.48 346.89 262.29 344.58 255.80 354.39
  C 251.93 360.24 253.94 367.75 259.19 372.31
  Z
  M 297.7571 369.0984
  A 7.00 4.37 93.3 0 0 302.5228 362.3616
  A 7.00 4.37 93.3 0 0 298.5629 355.1216
  A 7.00 4.37 93.3 0 0 293.7972 361.8584
  A 7.00 4.37 93.3 0 0 297.7571 369.0984
  Z
  M 244.55 423.89
  C 249.50 424.83 250.14 419.53 247.15 416.73
  C 246.26 415.90 245.95 414.91 245.55 413.82
  Q 245.36 413.32 245.66 412.87
  Q 246.53 411.55 248.25 410.74
  C 261.45 404.52 263.68 393.80 257.81 381.19
  C 253.63 372.20 242.36 368.89 234.70 375.68
  Q 227.56 382.01 226.04 392.57
  C 225.15 398.72 227.52 401.17 231.58 406.81
  Q 237.51 415.04 243.51 423.23
  A 1.71 1.70 -12.3 0 0 244.55 423.89
  Z"
/>
<path fill="#7f827b" d="
  M 633.7126 432.0204
  A 71.67 69.31 76.4 0 1 549.4934 378.6577
  A 71.67 69.31 76.4 0 1 600.0074 292.6996
  A 71.67 69.31 76.4 0 1 684.2266 346.0623
  A 71.67 69.31 76.4 0 1 633.7126 432.0204
  Z
  M 642.62 321.39
  A 23.70 23.70 0.0 0 0 618.92 297.69
  A 23.70 23.70 0.0 0 0 595.22 321.39
  A 23.70 23.70 0.0 0 0 618.92 345.09
  A 23.70 23.70 0.0 0 0 642.62 321.39
  Z
  M 603.01 362.12
  A 24.00 24.00 0.0 0 0 579.01 338.12
  A 24.00 24.00 0.0 0 0 555.01 362.12
  A 24.00 24.00 0.0 0 0 579.01 386.12
  A 24.00 24.00 0.0 0 0 603.01 362.12
  Z
  M 682.03 362.28
  A 23.02 23.02 0.0 0 0 659.01 339.26
  A 23.02 23.02 0.0 0 0 635.99 362.28
  A 23.02 23.02 0.0 0 0 659.01 385.30
  A 23.02 23.02 0.0 0 0 682.03 362.28
  Z
  M 643.08 402.45
  A 23.72 23.72 0.0 0 0 619.36 378.73
  A 23.72 23.72 0.0 0 0 595.64 402.45
  A 23.72 23.72 0.0 0 0 619.36 426.17
  A 23.72 23.72 0.0 0 0 643.08 402.45
  Z"
/>
<circle fill="#ffffff" cx="618.92" cy="321.39" r="23.70"/>
<path fill="#7f827b" d="
  M 326.88 378.90
  Q 322.66 376.19 323.40 370.98
  Q 326.95 345.83 314.17 324.65
  A 2.96 2.96 0.0 0 1 314.62 321.01
  C 316.67 318.97 329.79 306.71 329.99 316.76
  Q 330.33 334.66 330.27 352.58
  C 330.22 366.50 331.79 376.65 348.19 376.68
  Q 427.48 376.84 506.78 376.71
  C 522.46 376.68 527.77 372.69 528.98 356.76
  C 530.04 342.90 530.08 329.05 531.03 314.90
  Q 531.19 312.53 533.41 313.37
  C 536.30 314.47 545.78 318.44 547.23 321.77
  Q 547.45 322.27 547.22 322.77
  C 539.39 339.91 535.14 354.37 538.30 373.50
  C 538.82 376.65 537.33 377.56 534.45 377.98
  Q 528.61 378.82 522.83 379.65
  C 489.84 384.42 466.43 403.52 462.53 438.02
  Q 461.39 448.16 461.32 455.05
  C 461.22 464.60 459.60 469.37 449.31 469.03
  Q 426.85 468.29 404.46 466.66
  C 400.24 466.35 400.75 464.16 400.76 460.91
  C 400.80 453.01 401.21 444.97 400.01 437.22
  C 394.68 402.79 370.55 384.15 337.49 377.93
  C 334.55 377.37 331.02 381.57 326.88 378.90
  Z
  M 409.28 399.09
  C 415.55 407.76 426.97 409.89 436.61 406.07
  Q 439.31 405.00 441.13 404.89
  Q 443.21 404.77 442.67 406.77
  Q 441.11 412.53 436.45 415.57
  C 433.30 417.63 427.80 415.18 424.94 416.66
  C 416.60 420.98 406.78 429.68 405.55 439.07
  C 402.32 463.90 457.18 474.45 456.52 444.50
  C 456.43 440.15 455.92 435.51 454.01 431.65
  C 451.99 427.56 447.15 423.63 443.71 419.79
  A 2.29 2.29 0.0 0 1 443.83 416.61
  C 445.81 414.72 458.38 397.52 449.70 397.34
  Q 432.10 396.97 414.50 396.41
  Q 411.97 396.33 410.04 396.88
  A 1.43 1.43 0.0 0 0 409.28 399.09
  Z"
/>
<path fill="#ffffff" d="
  M 254.55 317.75
  A 6.32 6.32 0.0 0 1 260.63 324.30
  L 260.40 330.65
  A 21.53 15.95 -87.9 0 1 243.67 351.58
  L 242.63 351.54
  A 21.53 15.95 -87.9 0 1 227.48 329.44
  L 227.72 323.09
  A 6.32 6.32 0.0 0 1 234.26 317.01
  L 254.55 317.75
  Z
  M 250.5580 339.0807
  A 8.55 6.56 35.3 0 0 247.3707 328.7861
  A 8.55 6.56 35.3 0 0 236.6020 329.1993
  A 8.55 6.56 35.3 0 0 239.7893 339.4939
  A 8.55 6.56 35.3 0 0 250.5580 339.0807
  Z"
/>
<ellipse fill="#7f827b" cx="0.00" cy="0.00" transform="translate(243.58,334.14) rotate(35.3)" rx="8.55" ry="6.56"/>
<circle fill="#ffffff" cx="579.01" cy="362.12" r="24.00"/>
<path fill="#ffffff" d="
  M 682.03 362.28
  A 23.02 23.02 0.0 0 1 659.01 385.30
  A 23.02 23.02 0.0 0 1 635.99 362.28
  A 23.02 23.02 0.0 0 1 659.01 339.26
  A 23.02 23.02 0.0 0 1 682.03 362.28
  Z
  M 670.12 363.04
  L 671.56 360.11
  A 1.34 1.34 0.0 0 0 670.96 358.32
  L 663.70 354.73
  A 11.81 2.36 26.3 0 0 652.07 351.62
  L 651.53 352.71
  A 11.81 2.36 26.3 0 0 661.07 360.06
  L 668.32 363.64
  A 1.34 1.34 0.0 0 0 670.12 363.04
  Z"
/>
<path fill="#ffffff" d="
  M 218.77 377.94
  C 206.98 380.67 196.49 374.66 190.97 364.04
  C 189.33 360.87 189.94 358.77 192.44 356.24
  Q 203.96 344.61 221.73 348.78
  C 228.56 350.38 233.01 353.48 233.49 360.96
  C 234.08 370.38 227.38 375.94 218.77 377.94
  Z
  M 224.1508 361.3636
  A 8.78 6.17 -7.7 0 0 214.6233 356.4256
  A 8.78 6.17 -7.7 0 0 206.7492 363.7164
  A 8.78 6.17 -7.7 0 0 216.2767 368.6544
  A 8.78 6.17 -7.7 0 0 224.1508 361.3636
  Z"
/>
<path fill="#ffffff" d="
  M 259.19 372.31
  C 253.94 367.75 251.93 360.24 255.80 354.39
  C 262.29 344.58 280.48 346.89 289.27 351.70
  C 293.19 353.85 289.45 358.04 287.85 360.16
  A 1.56 1.55 63.2 0 0 287.55 361.08
  C 287.57 364.16 289.18 366.92 289.19 369.48
  Q 289.21 376.75 281.76 378.24
  Q 268.93 380.79 259.19 372.31
  Z
  M 281.2010 364.4923
  A 9.54 6.35 12.3 0 0 273.2327 356.2558
  A 9.54 6.35 12.3 0 0 262.5590 360.4277
  A 9.54 6.35 12.3 0 0 270.5273 368.6642
  A 9.54 6.35 12.3 0 0 281.2010 364.4923
  Z"
/>
<path fill="#7f827b" d="
  M 670.12 363.04
  A 1.34 1.34 0.0 0 1 668.32 363.64
  L 661.07 360.06
  A 11.81 2.36 26.3 0 1 651.53 352.71
  L 652.07 351.62
  A 11.81 2.36 26.3 0 1 663.70 354.73
  L 670.96 358.32
  A 1.34 1.34 0.0 0 1 671.56 360.11
  L 670.12 363.04
  Z"
/>
<ellipse fill="#ffffff" cx="0.00" cy="0.00" transform="translate(298.16,362.11) rotate(93.3)" rx="7.00" ry="4.37"/>
<ellipse fill="#7f827b" cx="0.00" cy="0.00" transform="translate(271.88,362.46) rotate(12.3)" rx="9.54" ry="6.35"/>
<ellipse fill="#7f827b" cx="0.00" cy="0.00" transform="translate(215.45,362.54) rotate(-7.7)" rx="8.78" ry="6.17"/>
<path fill="#ffffff" d="
  M 244.55 423.89
  A 1.71 1.70 -12.3 0 1 243.51 423.23
  Q 237.51 415.04 231.58 406.81
  C 227.52 401.17 225.15 398.72 226.04 392.57
  Q 227.56 382.01 234.70 375.68
  C 242.36 368.89 253.63 372.20 257.81 381.19
  C 263.68 393.80 261.45 404.52 248.25 410.74
  Q 246.53 411.55 245.66 412.87
  Q 245.36 413.32 245.55 413.82
  C 245.95 414.91 246.26 415.90 247.15 416.73
  C 250.14 419.53 249.50 424.83 244.55 423.89
  Z
  M 250.93 393.16
  L 247.60 384.16
  A 2.85 2.85 0.0 0 0 243.94 382.47
  L 241.90 383.23
  A 7.02 6.80 69.7 0 0 237.96 392.17
  L 238.40 393.35
  A 7.02 6.80 69.7 0 0 247.21 397.58
  L 249.24 396.82
  A 2.85 2.85 0.0 0 0 250.93 393.16
  Z"
/>
<path fill="#ffffff" d="
  M 643.08 402.45
  A 23.72 23.72 0.0 0 1 619.36 426.17
  A 23.72 23.72 0.0 0 1 595.64 402.45
  A 23.72 23.72 0.0 0 1 619.36 378.73
  A 23.72 23.72 0.0 0 1 643.08 402.45
  Z
  M 613.68 396.94
  Q 617.32 393.59 620.81 393.32
  C 636.31 392.11 617.16 382.10 614.40 387.67
  Q 611.44 393.67 607.51 404.19
  C 606.58 406.71 606.98 408.94 609.54 409.97
  Q 621.00 414.61 632.71 409.69
  C 636.93 407.92 633.31 403.64 631.59 401.77
  Q 631.23 401.38 630.87 401.77
  Q 627.36 405.50 623.06 408.32
  C 614.37 414.02 605.52 404.45 613.68 396.94
  Z"
/>
<path fill="#7f827b" d="
  M 250.93 393.16
  A 2.85 2.85 0.0 0 1 249.24 396.82
  L 247.21 397.58
  A 7.02 6.80 69.7 0 1 238.40 393.35
  L 237.96 392.17
  A 7.02 6.80 69.7 0 1 241.90 383.23
  L 243.94 382.47
  A 2.85 2.85 0.0 0 1 247.60 384.16
  L 250.93 393.16
  Z"
/>
<path fill="#7f827b" d="
  M 613.68 396.94
  C 605.52 404.45 614.37 414.02 623.06 408.32
  Q 627.36 405.50 630.87 401.77
  Q 631.23 401.38 631.59 401.77
  C 633.31 403.64 636.93 407.92 632.71 409.69
  Q 621.00 414.61 609.54 409.97
  C 606.98 408.94 606.58 406.71 607.51 404.19
  Q 611.44 393.67 614.40 387.67
  C 617.16 382.10 636.31 392.11 620.81 393.32
  Q 617.32 393.59 613.68 396.94
  Z"
/>
<path fill="#7f827b" d="
  M 147.19 559.81
  C 141.71 556.51 141.41 550.98 142.34 544.68
  C 149.52 495.98 156.00 447.11 163.69 398.49
  Q 163.90 397.18 165.26 395.43
  Q 165.57 395.03 166.08 395.02
  C 168.79 394.98 173.59 403.13 176.56 407.45
  C 196.70 436.78 227.79 446.11 262.09 439.86
  C 264.53 439.42 266.79 439.47 269.19 439.51
  Q 269.75 439.52 269.96 440.03
  Q 270.78 442.01 270.68 444.31
  C 270.04 459.26 274.49 471.10 282.26 483.53
  C 283.32 485.23 282.60 489.64 281.77 491.97
  Q 267.07 533.11 252.57 574.31
  C 250.48 580.23 246.09 580.31 239.88 580.85
  Q 189.34 585.20 147.19 559.81
  Z"
/>
<path fill="#7f827b" d="
  M 615.23 578.36
  C 610.12 577.61 608.79 571.65 607.32 567.60
  Q 594.15 531.31 580.95 495.02
  Q 578.92 489.46 578.08 485.92
  A 1.22 1.21 56.1 0 1 578.27 484.93
  C 586.56 472.95 591.91 462.59 592.26 447.75
  Q 592.33 444.59 592.80 442.04
  Q 592.90 441.49 593.45 441.46
  Q 622.37 440.14 631.74 439.50
  C 661.50 437.46 679.12 421.23 692.72 396.24
  A 1.39 1.39 0.0 0 1 693.76 395.53
  C 695.48 395.30 695.39 397.10 695.62 398.16
  Q 711.85 472.70 717.93 548.74
  C 718.60 557.17 717.20 557.87 709.67 561.92
  Q 665.42 585.75 615.23 578.36
  Z"
/>
<path fill="#ffffff" d="
  M 436.61 406.07
  C 426.97 409.89 415.55 407.76 409.28 399.09
  A 1.43 1.43 0.0 0 1 410.04 396.88
  Q 411.97 396.33 414.50 396.41
  Q 432.10 396.97 449.70 397.34
  C 458.38 397.52 445.81 414.72 443.83 416.61
  A 2.29 2.29 0.0 0 0 443.71 419.79
  C 447.15 423.63 451.99 427.56 454.01 431.65
  C 455.92 435.51 456.43 440.15 456.52 444.50
  C 457.18 474.45 402.32 463.90 405.55 439.07
  C 406.78 429.68 416.60 420.98 424.94 416.66
  C 427.80 415.18 433.30 417.63 436.45 415.57
  Q 441.11 412.53 442.67 406.77
  Q 443.21 404.77 441.13 404.89
  Q 439.31 405.00 436.61 406.07
  Z
  M 445.9852 441.4552
  A 13.95 12.72 1.5 0 0 432.3730 428.3744
  A 13.95 12.72 1.5 0 0 418.0948 440.7248
  A 13.95 12.72 1.5 0 0 431.7070 453.8056
  A 13.95 12.72 1.5 0 0 445.9852 441.4552
  Z"
/>
<path fill="#7f827b" d="
  M 383.18 445.30
  A 47.31 47.31 0.0 0 1 335.87 492.61
  A 47.31 47.31 0.0 0 1 288.56 445.30
  A 47.31 47.31 0.0 0 1 335.87 397.99
  A 47.31 47.31 0.0 0 1 383.18 445.30
  Z
  M 374.85 443.55
  A 39.30 39.30 0.0 0 0 335.55 404.25
  A 39.30 39.30 0.0 0 0 296.25 443.55
  A 39.30 39.30 0.0 0 0 335.55 482.85
  A 39.30 39.30 0.0 0 0 374.85 443.55
  Z"
/>
<path fill="#7f827b" d="
  M 573.49 445.38
  A 47.42 47.42 0.0 0 1 526.07 492.80
  A 47.42 47.42 0.0 0 1 478.65 445.38
  A 47.42 47.42 0.0 0 1 526.07 397.96
  A 47.42 47.42 0.0 0 1 573.49 445.38
  Z
  M 565.61 443.47
  A 39.47 39.47 0.0 0 0 526.14 404.00
  A 39.47 39.47 0.0 0 0 486.67 443.47
  A 39.47 39.47 0.0 0 0 526.14 482.94
  A 39.47 39.47 0.0 0 0 565.61 443.47
  Z"
/>
<path fill="#57cd5f" d="
  M 61.18 400.94
  Q 61.46 420.75 61.16 440.50
  C 60.91 456.25 61.70 470.28 63.11 485.18
  C 63.66 491.03 62.42 496.84 61.77 502.62
  Q 61.11 508.50 61.05 514.29
  Q 60.56 563.85 61.48 591.00
  C 61.61 594.90 63.29 600.87 63.62 605.71
  Q 65.72 636.06 70.70 665.01
  L 33.38 710.29
  A 0.96 0.96 0.0 0 1 31.69 709.86
  Q 31.21 707.43 29.17 707.28
  L 25.32 699.07
  L 18.04 680.48
  A 0.65 0.60 -82.8 0 0 17.86 680.23
  Q 17.13 679.67 17.24 680.49
  L 15.88 677.30
  Q 16.62 676.95 16.19 675.52
  Q 9.79 654.48 5.79 634.81
  Q 3.40 623.52 3.26 611.61
  Q 3.85 604.13 3.91 591.00
  Q 3.94 584.96 3.27 581.19
  Q 4.39 553.35 8.95 525.75
  L 9.89 524.73
  Q 10.20 524.41 10.27 523.97
  L 26.71 429.00
  Q 27.73 429.40 28.30 428.49
  C 32.63 421.53 37.16 421.79 46.11 420.51
  Q 52.53 419.60 59.00 419.38
  Q 59.48 419.36 59.53 418.88
  L 61.18 400.94
  Z"
/>
<path fill="#ffffff" d="
  M 565.61 443.47
  A 39.47 39.47 0.0 0 1 526.14 482.94
  A 39.47 39.47 0.0 0 1 486.67 443.47
  A 39.47 39.47 0.0 0 1 526.14 404.00
  A 39.47 39.47 0.0 0 1 565.61 443.47
  Z
  M 555.17 443.89
  A 28.85 28.85 0.0 0 0 526.32 415.04
  A 28.85 28.85 0.0 0 0 497.47 443.89
  A 28.85 28.85 0.0 0 0 526.32 472.74
  A 28.85 28.85 0.0 0 0 555.17 443.89
  Z"
/>
<path fill="#ffffff" d="
  M 374.85 443.55
  A 39.30 39.30 0.0 0 1 335.55 482.85
  A 39.30 39.30 0.0 0 1 296.25 443.55
  A 39.30 39.30 0.0 0 1 335.55 404.25
  A 39.30 39.30 0.0 0 1 374.85 443.55
  Z
  M 365.03 443.68
  A 28.63 28.63 0.0 0 0 336.40 415.05
  A 28.63 28.63 0.0 0 0 307.77 443.68
  A 28.63 28.63 0.0 0 0 336.40 472.31
  A 28.63 28.63 0.0 0 0 365.03 443.68
  Z"
/>
<circle fill="#7f827b" cx="336.40" cy="443.68" r="28.63"/>
<circle fill="#7f827b" cx="526.32" cy="443.89" r="28.85"/>
<ellipse fill="#7f827b" cx="0.00" cy="0.00" transform="translate(432.04,441.09) rotate(1.5)" rx="13.95" ry="12.72"/>
<rect fill="#7f827b" x="-38.74" y="-2.75" transform="translate(428.68,481.60) rotate(-1.4)" width="77.48" height="5.50" rx="1.85"/>
<path fill="#7f827b" d="
  M 240.59 593.25
  C 211.74 629.98 155.56 625.04 145.16 575.28
  Q 144.93 574.18 145.34 573.46
  A 2.63 2.63 0.0 0 1 148.61 572.32
  C 154.83 574.83 161.52 577.89 167.30 579.93
  C 191.84 588.59 214.72 589.77 239.71 591.31
  A 1.21 1.20 20.7 0 1 240.59 593.25
  Z"
/>
<path fill="#7f827b" d="
  M 627.69 601.31
  C 625.19 599.51 622.88 596.99 623.59 593.76
  Q 624.24 590.75 628.00 590.91
  Q 670.08 592.71 708.42 575.64
  Q 711.31 574.35 714.40 573.60
  Q 715.06 573.44 715.06 574.12
  Q 715.08 576.52 714.07 580.32
  C 709.50 597.68 696.19 612.89 678.26 616.28
  C 660.65 619.61 642.11 611.72 627.69 601.31
  Z"
/>
<path fill="#b0e8b4" d="
  M 3.27 581.19
  Q 3.94 584.96 3.91 591.00
  Q 3.85 604.13 3.26 611.61
  Q 1.61 596.47 3.27 581.19
  Z"
/>
<path fill="#b0e8b4" d="
  M 5.79 634.81
  Q 9.79 654.48 16.19 675.52
  Q 16.62 676.95 15.88 677.30
  Q 8.13 656.62 5.79 634.81
  Z"
/>
<path fill="#ccefcf" d="
  M 817.57 645.51
  C 814.77 672.22 811.87 693.34 804.97 717.94
  C 776.19 820.54 677.61 883.78 573.99 882.78
  Q 565.88 882.70 542.18 879.95
  C 513.42 876.61 483.70 870.90 444.18 864.32
  Q 351.87 848.95 225.99 832.01
  L 226.90 830.16
  Q 227.13 829.69 227.04 829.18
  C 226.22 823.99 225.71 820.39 229.81 817.00
  C 276.84 824.23 317.39 820.73 370.57 820.24
  Q 451.50 819.49 532.44 819.93
  Q 594.51 820.27 610.50 819.99
  C 707.19 818.26 785.14 737.36 803.82 646.12
  Q 810.54 644.22 817.57 645.51
  Z"
/>
<path fill="#8bdb90" d="
  M 70.70 665.01
  C 93.21 737.03 140.38 789.55 213.56 812.07
  Q 221.59 814.54 229.81 817.00
  C 225.71 820.39 226.22 823.99 227.04 829.18
  Q 227.13 829.69 226.90 830.16
  L 225.99 832.01
  Q 196.50 827.45 168.99 819.28
  C 108.40 801.27 59.58 763.09 29.17 707.28
  Q 31.21 707.43 31.69 709.86
  A 0.96 0.96 0.0 0 0 33.38 710.29
  L 70.70 665.01
  Z"
/>
<path fill="#b0e8b4" d="
  M 25.32 699.07
  Q 20.18 690.17 17.24 680.49
  Q 17.13 679.67 17.86 680.23
  A 0.65 0.60 -82.8 0 1 18.04 680.48
  L 25.32 699.07
  Z"
/>
</svg>
