<svg width="24px" height="24px" viewBox="0 0 24 24" version="1.1" xmlns="http://www.w3.org/2000/svg"><g id="Artboard" stroke="none" stroke-width="1" fill="none" fill-rule="evenodd"><rect id="Rectangle" x="0" y="0" width="24" height="24"></rect><g id="004-paypal" transform="translate(3.000000, 3.000000)" fill-rule="nonzero"><path d="M15.4372365,4.65046875 C15.469677,4.40279297 15.4866269,4.15061719 15.4866269,3.89471484 C15.4866269,1.74375 13.6307832,0 11.3414641,0 L4.41401367,0 C3.97825578,0 3.60621897,0.295664062 3.5339294,0.699398437 L0.981344547,14.9543789 C0.889747835,15.4659023 1.30941643,15.9320391 1.86142881,15.9320391 L4.39496844,15.9320391 C4.83072633,15.9320391 5.20976011,15.6365859 5.28201225,15.2328164 C5.28201225,15.2328164 5.28624037,15.2091563 5.29387343,15.1665469 L5.29391085,15.1665469 L4.94084443,17.1383203 C4.86017347,17.5891289 5.2300401,18 5.7165728,18 L7.93304113,18 C8.3171262,18 8.64504841,17.7393867 8.70873208,17.3835352 L9.33842206,13.867207 C9.44696865,13.261043 10.0054916,12.8171953 10.6596523,12.8171953 L11.2419349,12.8171953 C14.4047904,12.8171953 16.96875,10.4081133 16.96875,7.43639062 C16.96875,6.28646484 16.3637926,5.26999219 15.4372365,4.65046875 Z" id="Path_1" fill="#002987"></path><path d="M15.4421932,5 C15.0470808,7.95040293 12.3076999,10.2349889 8.98680193,10.2349889 L7.05991132,10.2349889 C6.6250043,10.2349889 6.24939769,10.500898 6.13158007,10.8768751 L4.97980932,17.1608132 C4.89936215,17.5998525 5.26803173,18 5.75298979,18 L7.96228465,18 C8.34512666,18 8.67198757,17.7462104 8.73546513,17.3996761 L9.36311716,13.9754161 C9.47131245,13.3851232 10.0280277,12.9528969 10.6800713,12.9528969 L11.2604694,12.9528969 C14.4130885,12.9528969 16.96875,10.6068919 16.96875,7.71297798 L16.96875,7.71297798 C16.96875,6.59316075 16.3657505,5.60330243 15.4421932,5 Z" id="Path_2" fill="#0085CC"></path><path d="M6.86614348,10.3079548 L8.72874327,10.3079548 C11.9388753,10.3079548 14.5868567,7.84471221 14.96875,4.66362222 C14.3959641,4.24628365 13.6959885,4 12.9394121,4 L8.07786982,4 C7.52437143,4 7.05177256,4.40925462 6.95991338,4.9681177 L5.96875,11 C6.08263663,10.5946212 6.44574715,10.3079548 6.86614348,10.3079548 Z" id="Path_3" fill="#00186A"></path></g></g></svg>