<svg width="24px" height="24px" viewBox="0 0 24 24" version="1.1" xmlns="http://www.w3.org/2000/svg"><g id="Artboard" stroke="none" stroke-width="1" fill="none" fill-rule="evenodd"><rect id="Rectangle" x="0" y="0" width="24" height="24"></rect><g id="003-twitch" transform="translate(2.000000, 2.000000)" fill="#673AB7" fill-rule="nonzero"><path d="M0,3.47916667 L0,17.3908333 L4.99891309,17.3908333 L4.99891309,20 L7.72835964,20 L10.4534585,17.39 L14.544585,17.39 L20,12.175 L20,0 L1.36254945,0 L0,3.47916667 Z M3.18073127,1.7375 L18.1818182,1.7375 L18.1818182,11.3033333 L14.9993479,14.3466667 L9.99869571,14.3466667 L7.2735968,16.9525 L7.2735968,14.3466667 L3.18073127,14.3466667 L3.18073127,1.7375 Z" id="Shape"></path><polygon id="Path" points="8 5 10 5 10 10 8 10"></polygon><polygon id="Path" points="13 5 15 5 15 10 13 10"></polygon></g></g></svg>